<svg width="39" height="49" viewBox="0 0 39 49" fill="none" xmlns="http://www.w3.org/2000/svg">
<path d="M17.9137 0.508209C16.4793 0.855083 15.1012 1.93321 14.4824 3.18946L14.173 3.82696H12.2887C9.68242 3.82696 9.60742 3.87383 9.60742 5.66446V6.63946H7.24492C5.48242 6.63946 4.72305 6.67696 4.28242 6.78008C2.48242 7.21133 0.982422 8.71133 0.616797 10.4645C0.541797 10.8207 0.513672 15.8645 0.513672 27.7707C0.513672 44.252 0.513672 44.5988 0.701172 45.1895C1.16992 46.6988 2.47305 47.8332 4.19805 48.2176C4.79805 48.3488 6.4293 48.3582 19.6855 48.3395L34.498 48.3113L35.1262 48.0676C36.2793 47.6176 37.2918 46.7926 37.7324 45.9301C38.2293 44.9457 38.2012 45.9488 38.2012 27.7332C38.2012 9.33008 38.2293 10.4457 37.6668 9.26446C37.3387 8.58008 36.2605 7.51133 35.5574 7.17383C34.5918 6.71446 34.0574 6.63946 31.4793 6.63946H29.1074V5.66446C29.1074 4.52071 29.0324 4.26758 28.6199 4.01446C28.3387 3.84571 28.1418 3.82696 26.3699 3.82696H24.4293L24.1293 3.18946C23.7168 2.33633 22.723 1.34258 21.8699 0.930084C20.7355 0.395706 19.1043 0.217583 17.9137 0.508209ZM20.5762 2.79571C21.5137 3.27383 22.048 3.91133 22.3293 4.85821C22.6574 6.00196 22.8262 6.07696 25.0668 6.07696H26.7637V8.37383V10.6707H19.3574H11.9512V8.38321V6.08633L13.6762 6.05821C15.748 6.02071 15.7949 6.00196 16.1793 4.98946C16.5355 4.03321 16.6762 3.79883 17.2012 3.33008C17.8855 2.71133 18.4668 2.50508 19.4043 2.54258C19.9574 2.57071 20.2668 2.63633 20.5762 2.79571ZM9.62617 10.502C9.6543 12.002 9.67305 12.1426 9.86055 12.4145C9.97305 12.5738 10.1887 12.7613 10.3293 12.8176C10.5262 12.8926 12.9449 12.9207 19.4699 12.902L28.3387 12.8738L28.5918 12.6395C29.0418 12.227 29.1074 11.927 29.1074 10.3332V8.87071L31.5262 8.90821L33.9355 8.93633L34.4699 9.19883C35.0418 9.48008 35.3605 9.79883 35.698 10.427L35.9043 10.8113L35.9324 27.452C35.9512 40.3707 35.9324 44.1863 35.8387 44.5145C35.698 45.0488 35.1074 45.6488 34.4887 45.8832C34.048 46.052 33.5324 46.0613 19.6012 46.0895C3.90742 46.1176 4.5543 46.1363 3.71055 45.602C3.26992 45.3207 3.00742 44.9738 2.8668 44.4676C2.78242 44.1863 2.76367 39.8738 2.78242 27.452C2.81055 11.4113 2.81992 10.802 2.98867 10.4832C3.43867 9.63008 4.03867 9.14258 4.83555 8.99258C5.06055 8.94571 6.22305 8.90821 7.42305 8.89883L9.58867 8.88946L9.62617 10.502Z" fill="#6551E0"/>
<path d="M13.6859 16.5207C13.5359 16.5957 12.5796 17.4395 11.5765 18.3957C10.5734 19.352 9.72026 20.1395 9.69214 20.1395C9.65464 20.1395 9.29839 19.7926 8.89526 19.3614C7.97651 18.3957 7.78901 18.2645 7.28276 18.2645C6.58901 18.2645 6.13901 18.8832 6.27964 19.6426C6.32651 19.9239 6.58901 20.2426 7.70464 21.3676C8.45464 22.127 9.18589 22.802 9.34526 22.8676C9.89839 23.0926 10.1515 22.9239 12.6546 20.552C14.9328 18.3957 15.3265 17.9551 15.3265 17.5614C15.3265 17.2332 14.9984 16.7364 14.6609 16.5582C14.2859 16.3614 14.0703 16.352 13.6859 16.5207Z" fill="#6551E0"/>
<path d="M17.7074 19.3519C17.3324 19.5301 17.1074 19.9332 17.1074 20.4207C17.1074 20.9551 17.548 21.4051 18.148 21.4988C18.373 21.5269 21.5137 21.5457 25.123 21.5269C32.2668 21.4988 31.9574 21.5176 32.2949 20.9551C32.6418 20.4019 32.4918 19.7926 31.9293 19.4176L31.6105 19.2019H24.8043C18.9355 19.2019 17.9605 19.2301 17.7074 19.3519Z" fill="#6551E0"/>
<path d="M13.5922 25.6894C13.4891 25.7457 12.5797 26.5894 11.5672 27.5644L9.72972 29.3269L8.85785 28.4363C7.94847 27.5082 7.57347 27.2926 7.08597 27.4051C6.5141 27.5269 6.12035 28.2113 6.27035 28.8207C6.33597 29.0738 8.8016 31.7176 9.15785 31.9238C9.42972 32.0738 9.97347 32.0738 10.2266 31.9238C10.6391 31.6894 15.1203 27.3394 15.2328 27.0676C15.3922 26.6832 15.2235 26.1394 14.8485 25.8207C14.5391 25.5582 13.9391 25.4926 13.5922 25.6894Z" fill="#6551E0"/>
<path d="M17.7073 28.4832C16.9385 28.7926 16.9104 30.1051 17.6698 30.4989C18.0823 30.7145 31.4135 30.7145 31.8635 30.4989C32.426 30.227 32.6417 29.5332 32.3417 28.952C32.0417 28.3707 32.3229 28.3895 24.776 28.3989C20.9979 28.3989 17.8104 28.4364 17.7073 28.4832Z" fill="#6551E0"/>
<path d="M13.6859 34.8113C13.5359 34.877 12.5796 35.7207 11.5765 36.677C10.5734 37.6332 9.72026 38.4207 9.69214 38.4207C9.66401 38.4207 9.30776 38.0738 8.89526 37.6426C7.95776 36.6676 7.77964 36.5457 7.28276 36.5457C6.58901 36.5457 6.13901 37.1645 6.27964 37.9238C6.32651 38.2051 6.58901 38.5238 7.70464 39.6488C8.45464 40.4082 9.18589 41.0832 9.34526 41.1488C9.90776 41.3832 10.1515 41.2051 12.6546 38.8332C14.9328 36.677 15.3265 36.2363 15.3265 35.8426C15.3265 35.5145 14.9984 35.0176 14.6609 34.8395C14.2859 34.6426 14.0703 34.6332 13.6859 34.8113Z" fill="#6551E0"/>
<path d="M17.8004 37.577C17.6973 37.6145 17.491 37.7832 17.3598 37.952C16.8348 38.5707 17.1441 39.5082 17.9316 39.7332C18.4566 39.8739 31.3004 39.8551 31.7316 39.7051C31.9098 39.6395 32.1441 39.452 32.266 39.2739C32.641 38.7114 32.5098 38.0926 31.9285 37.6989L31.6098 37.4832L24.8035 37.4926C21.0629 37.4926 17.9129 37.5301 17.8004 37.577Z" fill="#6551E0"/>
</svg>
