<svg width="32" height="46" viewBox="0 0 32 46" fill="none" xmlns="http://www.w3.org/2000/svg">
<path d="M13.5967 0.596348C11.3748 0.915096 9.11545 1.75885 7.24983 2.94947C6.25607 3.58697 5.9842 3.8776 5.9842 4.30885C5.9842 4.80572 6.31233 5.13385 6.79983 5.13385C7.08108 5.13385 7.31545 5.02135 7.8592 4.65572C9.2842 3.6901 10.9623 2.95885 12.7342 2.53697C13.953 2.25572 16.3998 2.14322 17.6186 2.31197C18.7342 2.47135 20.0561 2.8276 21.0123 3.2026C22.1092 3.6526 22.4748 3.8401 23.5155 4.52447C27.8186 7.3651 30.2467 12.3526 29.7967 17.4057C29.5717 19.8338 28.653 22.4401 27.378 24.212C26.8155 24.9901 15.7998 39.3526 15.7811 39.3338C15.7717 39.3151 13.2405 36.0151 10.1561 31.9932C7.0717 27.9713 4.32482 24.3432 4.05295 23.9307C2.59982 21.6901 1.8967 19.4495 1.79357 16.7588C1.7092 14.3026 2.11232 12.362 3.18107 10.1026C3.48107 9.45572 3.7342 8.83697 3.7342 8.72447C3.7342 8.61197 3.6217 8.39635 3.49045 8.23697C3.30295 8.01197 3.1717 7.94635 2.89982 7.94635C2.3842 7.94635 2.17795 8.1526 1.66232 9.18385C-0.962675 14.4151 -0.44705 20.6776 2.9842 25.4776C3.33107 25.9651 5.71233 29.087 8.26233 32.4151L12.9123 38.462L12.4717 38.537C7.9342 39.2776 6.18108 40.2151 6.1717 41.912C6.1717 42.9245 6.98733 43.7401 8.6467 44.3682C11.9842 45.6245 18.2092 45.7557 22.0811 44.6401C25.1561 43.7588 26.2905 42.0901 24.8467 40.5526C24.0592 39.7182 22.3717 39.062 19.9998 38.6776C19.3342 38.5745 18.7623 38.4713 18.753 38.462C18.7342 38.4432 20.928 35.5463 23.628 32.0213C28.9623 25.0651 29.0936 24.8963 29.778 23.5932C30.9498 21.3901 31.4748 19.337 31.5498 16.6651C31.6061 14.9026 31.4748 13.7026 31.0905 12.2588C29.7686 7.26197 26.1311 3.24947 21.2936 1.43072C18.9967 0.558849 16.0248 0.240097 13.5967 0.596348ZM14.778 40.8901C15.6405 41.9495 16.053 41.9401 16.8686 40.8432C17.4217 40.0838 17.3748 40.0932 19.2311 40.337C21.1248 40.5901 22.8873 41.1432 23.5155 41.687L23.7498 41.8838L23.5155 42.0807C21.5655 43.7588 13.8217 44.1901 9.68733 42.8495C8.48733 42.4651 7.84045 42.0526 7.99983 41.7901C8.39357 41.1526 11.6373 40.2432 13.6811 40.2057L14.2061 40.1963L14.778 40.8901Z" fill="#6551E0"/>
<path d="M13.7177 3.68071C10.9239 4.19634 8.59894 5.41509 6.72394 7.35571C5.18644 8.94009 4.28644 10.4495 3.63956 12.5307C2.60831 15.8401 3.02081 19.5995 4.72706 22.5245C6.63019 25.7682 9.63956 27.9526 13.2958 28.7307C14.4114 28.9651 17.2333 28.9651 18.3302 28.7307C19.8583 28.4026 22.0333 27.512 22.4177 27.062C22.6708 26.7526 22.6239 26.2557 22.3052 25.937C21.9583 25.5995 21.6396 25.5901 21.0396 25.9088C19.8302 26.5557 18.0864 27.0526 16.5583 27.2026C15.7614 27.2776 14.0271 27.1182 13.0989 26.8838C10.3708 26.1807 7.93331 24.3901 6.44269 21.9713C5.43956 20.3307 4.95206 18.6995 4.88644 16.6838C4.83019 15.212 4.92394 14.387 5.28956 13.112C6.23644 9.85884 8.84269 7.09321 12.0583 5.93071C18.3677 3.65259 25.1927 7.51509 26.5708 14.1338C26.8052 15.2495 26.8052 17.2932 26.5708 18.3526C26.3552 19.337 25.9427 20.537 25.5208 21.3713C25.3427 21.7182 25.2021 22.112 25.2021 22.2526C25.2021 22.6182 25.6708 23.0401 26.0927 23.0401C26.5427 23.0401 26.8146 22.7588 27.2646 21.7932C30.2552 15.3995 27.7239 8.00259 21.4521 4.85259C20.4396 4.34634 18.9489 3.85884 17.8614 3.68071C16.8208 3.51196 14.6364 3.51196 13.7177 3.68071Z" fill="#6551E0"/>
<path d="M3.9489 5.93076C3.37702 6.17451 3.2739 6.84014 3.7239 7.29951C4.08015 7.64639 4.46452 7.65576 4.85827 7.32764C5.1114 7.10264 5.1489 7.02764 5.12077 6.65264C5.10202 6.32451 5.0364 6.19326 4.85827 6.06201C4.5114 5.81826 4.2864 5.78076 3.9489 5.93076Z" fill="#6551E0"/>
<path d="M15.0397 8.41504C13.896 8.62129 12.696 9.54004 12.171 10.6088C11.796 11.3682 11.6741 12.2119 11.721 13.7119C11.7585 14.7432 11.796 15.015 12.0022 15.5119L12.2366 16.0838L11.796 16.4119C10.3897 17.4619 9.38661 19.4119 9.33974 21.1838C9.32099 21.8307 9.44286 22.1213 9.79911 22.2807C9.94911 22.3557 11.9179 22.3838 15.8741 22.3838H21.7241L21.9679 22.1682C22.5022 21.7182 22.3241 20.1713 21.5741 18.6338C21.2085 17.8744 21.0116 17.6213 20.2804 16.89L19.4179 16.0275L19.6335 15.39C19.8304 14.8182 19.8585 14.565 19.8585 13.2807C19.8585 12.0619 19.8304 11.7057 19.671 11.19C19.4366 10.44 18.7804 9.54004 18.1429 9.10879C17.2616 8.50879 16.0616 8.23691 15.0397 8.41504ZM16.4929 10.2057C16.671 10.2713 16.9522 10.4213 17.1304 10.5525L17.4491 10.7869L16.9429 11.0213C15.6022 11.6213 13.5772 12.09 13.5772 11.7994C13.5772 11.6119 13.8679 11.1057 14.1304 10.8244C14.7022 10.2057 15.7054 9.94316 16.4929 10.2057ZM18.1522 13.4963C18.1241 14.1244 18.0397 14.6963 17.9647 14.8932C17.4304 16.1588 15.9116 16.7025 14.721 16.0557C13.9522 15.6338 13.4929 14.9119 13.4835 14.0775V13.6838L14.121 13.6275C14.9741 13.5338 16.3147 13.1775 17.2522 12.7838C17.6835 12.6057 18.0679 12.4557 18.1147 12.4557C18.1616 12.4463 18.1804 12.915 18.1522 13.4963ZM14.1022 17.715C14.7116 18.0057 14.8054 18.0244 15.8272 18.0244C16.8585 18.0244 16.9335 18.0057 17.5429 17.715L18.1804 17.4057L18.6491 17.7525C19.446 18.3338 20.1866 19.4307 20.3741 20.2932L20.4397 20.6025H15.7897H11.1491L11.2897 20.1057C11.4772 19.4869 11.8147 18.8963 12.3022 18.3713C12.6116 18.0244 13.3429 17.415 13.4366 17.415C13.4554 17.415 13.7554 17.5557 14.1022 17.715Z" fill="#6551E0"/>
<path d="M24.1616 23.4619C23.8616 23.6213 23.6554 24.0807 23.7397 24.4088C23.8241 24.7275 24.2366 25.1025 24.5085 25.1025C24.996 25.1025 25.4835 24.6619 25.4835 24.2213C25.4835 23.9494 25.2585 23.5838 25.0054 23.4525C24.6772 23.2932 24.471 23.2932 24.1616 23.4619Z" fill="#6551E0"/>
</svg>