<svg width="31" height="30" viewBox="0 0 31 30" fill="none" xmlns="http://www.w3.org/2000/svg">
<path d="M8.57585 0.0703945C8.5114 0.105551 8.42351 0.175863 8.38835 0.222738C8.28875 0.339926 8.27703 26.6016 8.37078 26.7774C8.40007 26.836 8.51726 26.9181 8.62859 26.9532C8.89812 27.0411 9.15007 26.9122 9.24382 26.6544C9.2907 26.5196 9.30828 22.8985 9.30828 13.7345V0.996176H15.2848H21.2614V13.7345C21.2614 22.8985 21.279 26.5196 21.3259 26.6544C21.4196 26.9122 21.6716 27.0411 21.9411 26.9532C22.0524 26.9181 22.1696 26.836 22.1989 26.7774C22.2634 26.6544 22.2868 0.433676 22.2223 0.263754C22.1169 -0.00577736 22.2751 8.2016e-05 15.2731 8.2016e-05C10.6208 0.00594139 8.65789 0.0235195 8.57585 0.0703945Z" fill="#1D352D"/>
<path d="M11.6523 3.0293C11.6055 3.04688 11.5059 3.11719 11.4355 3.18164C11.3008 3.29883 11.3008 3.31641 11.3008 4.99219V6.68555L11.4473 6.82617C11.5879 6.97266 11.5937 6.97266 12.7949 6.97266C13.9141 6.97266 14.002 6.9668 14.1133 6.85547C14.1777 6.79102 14.2422 6.67969 14.2598 6.60938C14.2773 6.5332 14.2891 5.75391 14.2773 4.88086C14.2539 2.83594 14.3945 3.02344 12.8652 3.00586C12.25 3 11.6992 3.01172 11.6523 3.0293ZM13.293 4.98047V5.97656H12.7949H12.2969V4.98047V3.98438H12.7949H13.293V4.98047Z" fill="#1D352D"/>
<path d="M16.5742 3.06445C16.2988 3.20508 16.2812 3.31641 16.2812 4.99805C16.2812 6.63867 16.3105 6.84375 16.5449 6.9375C16.5977 6.95508 17.166 6.97266 17.8105 6.97266C18.9766 6.97266 18.9824 6.97266 19.123 6.82617L19.2695 6.68555V4.99219V3.29883L19.1172 3.1582C18.9707 3.02344 18.9414 3.01758 17.8457 3C17.0137 2.98828 16.6797 3.00586 16.5742 3.06445ZM18.2734 4.98047V5.97656H17.7754H17.2773V4.98047V3.98438H17.7754H18.2734V4.98047Z" fill="#1D352D"/>
<path d="M0.594795 6.05849C0.495186 6.10537 0.383858 6.19326 0.348701 6.26357C0.254951 6.43349 0.260811 16.5409 0.354561 16.7167C0.506905 17.0097 0.864326 17.0858 1.09284 16.8749C1.16315 16.8046 1.22761 16.746 1.23347 16.7401C1.24519 16.7343 1.26276 14.537 1.28034 11.8651L1.30964 7.00185L4.14558 6.98427C6.9698 6.97256 6.98737 6.97256 7.12214 6.84365C7.3155 6.66201 7.30378 6.33388 7.10456 6.14638L6.95222 6.00576L3.87019 5.99404C1.33308 5.98232 0.747139 5.99404 0.594795 6.05849Z" fill="#1D352D"/>
<path d="M23.6931 6.01763C23.324 6.10552 23.1775 6.59184 23.447 6.8438C23.5818 6.9727 23.5994 6.9727 26.4236 6.98442L29.2595 7.002L29.2771 17.0333L29.2888 27.0586L28.9255 27.0293C28.5681 26.9942 28.5447 26.9825 28.2751 26.6836C27.572 25.9043 26.3708 25.793 25.5622 26.4317C25.4392 26.5313 25.2751 26.7012 25.1931 26.8125C25.0642 26.9942 25.0232 27.0118 24.7537 27.0118C23.9509 27.0176 23.3122 27.6739 23.3122 28.5118C23.3122 29.1563 23.7107 29.7129 24.3142 29.9122C24.5486 29.9942 24.9353 30 26.8923 29.9883C29.0134 29.9708 29.2185 29.959 29.406 29.8594C29.6931 29.7071 29.9802 29.4258 30.1267 29.1504L30.2556 28.9161L30.2732 17.6485C30.279 9.5977 30.2673 6.34575 30.2205 6.26372C30.074 5.98247 29.9626 5.97661 26.7869 5.98247C25.1521 5.98833 23.7576 6.00005 23.6931 6.01763ZM27.2673 27.1465C27.4314 27.2403 27.5544 27.375 27.6775 27.6036C27.7771 27.7852 27.8884 27.9727 27.9294 28.0254C28.0349 28.1543 28.2517 28.1778 28.4685 28.084C28.7556 27.9668 28.9314 27.9903 29.1189 28.1778C29.3415 28.4004 29.3415 28.6114 29.1189 28.834L28.949 29.004H26.8279C24.3318 29.004 24.3083 28.9981 24.3083 28.4708C24.3083 28.254 24.5369 28.0079 24.7361 28.0079C24.8181 28.0079 24.9705 28.043 25.0759 28.0899C25.4158 28.2247 25.6267 28.125 25.8259 27.7266C26.0076 27.3633 26.1892 27.17 26.4177 27.0762C26.6697 26.9766 27.0154 27.0059 27.2673 27.1465Z" fill="#1D352D"/>
<path d="M3.4598 9.14053C3.39534 9.20499 3.31917 9.34561 3.30159 9.44522C3.28401 9.55069 3.2723 10.33 3.28401 11.1737C3.30745 13.1483 3.17269 12.9726 4.66097 12.996C5.868 13.0194 5.96761 13.0077 6.14339 12.8202C6.25472 12.6972 6.26058 12.621 6.26058 10.9862V9.2753L6.12581 9.15225C5.9969 9.0292 5.93831 9.02334 4.78987 9.02334C3.67073 9.02334 3.57698 9.0292 3.4598 9.14053ZM5.26448 11.0155V12.0116H4.76644H4.26839V11.0155V10.0194H4.76644H5.26448V11.0155Z" fill="#1D352D"/>
<path d="M11.4461 9.16994L11.2996 9.31056V11.0039C11.2996 13.2012 11.159 13.0254 12.8992 12.9961C14.3875 12.9727 14.2527 13.1543 14.2762 11.1152C14.2879 10.2422 14.2762 9.46291 14.2586 9.38673C14.241 9.31642 14.1766 9.20509 14.1121 9.14064C14.0008 9.02931 13.9129 9.02345 12.7937 9.02345C11.5926 9.02345 11.5867 9.02345 11.4461 9.16994ZM13.2918 11.0156V12.0117H12.7937H12.2957V11.0156V10.0195H12.7937H13.2918V11.0156Z" fill="#1D352D"/>
<path d="M16.4559 9.14053C16.3914 9.20499 16.327 9.31631 16.3094 9.38663C16.2918 9.4628 16.2801 10.2421 16.2918 11.1151C16.3153 13.1542 16.1805 12.9726 17.6688 12.996C18.8758 13.0194 18.9754 13.0077 19.1512 12.8202C19.2625 12.6972 19.2684 12.621 19.2684 11.0038V9.31045L19.1219 9.16983C18.9813 9.02334 18.9754 9.02334 17.7742 9.02334C16.6551 9.02334 16.5672 9.0292 16.4559 9.14053ZM18.2723 11.0155V12.0116H17.7742H17.2762V11.0155V10.0194H17.7742H18.2723V11.0155Z" fill="#1D352D"/>
<path d="M24.4363 9.15829C24.3074 9.29305 24.3074 9.32821 24.3074 10.9923C24.3074 13.2013 24.1668 13.0255 25.907 12.9962C27.3953 12.9727 27.2605 13.1485 27.284 11.1739C27.2957 10.3302 27.284 9.55087 27.2664 9.4454C27.2488 9.34579 27.1726 9.20516 27.1082 9.14071C26.991 9.02938 26.8973 9.02352 25.7723 9.02352C24.5828 9.02352 24.5594 9.02352 24.4363 9.15829ZM26.2996 11.0157V12.0118H25.8016H25.3035V11.0157V10.0196H25.8016H26.2996V11.0157Z" fill="#1D352D"/>
<path d="M3.4668 15.1406C3.30273 15.2812 3.30273 15.2871 3.30273 15.9961C3.30273 16.7051 3.30273 16.7109 3.4668 16.8516C3.67773 17.0332 3.91797 17.0332 4.11719 16.8457C4.25195 16.7226 4.26953 16.6582 4.26953 16.3476V15.9961H4.76172H5.25977L5.27734 17.3379C5.29492 18.668 5.29492 18.6855 5.43555 18.832C5.62891 19.0371 5.92188 19.0371 6.11523 18.8379L6.26172 18.6973V17.0273C6.26172 16.1133 6.24414 15.3164 6.22656 15.2637C6.13867 15.041 5.9043 15 4.74414 15C3.6543 15 3.63086 15 3.4668 15.1406Z" fill="#1D352D"/>
<path d="M11.5645 15.0703C11.3066 15.2168 11.3066 15.252 11.3008 17.0098V18.6973L11.4473 18.8379C11.5879 18.9844 11.5938 18.9844 12.7773 18.9844C13.6211 18.9785 13.9961 18.9609 14.0605 18.9082C14.2715 18.7441 14.2891 18.6094 14.2891 16.9629V15.3398L14.1191 15.1699L13.9492 15H12.8125C12.0742 15.0059 11.6406 15.0293 11.5645 15.0703ZM13.293 16.9922V17.9883H12.7949H12.2969V16.9922V15.9961H12.7949H13.293V16.9922Z" fill="#1D352D"/>
<path d="M16.4512 15.1699L16.2812 15.3398V16.9629C16.2812 18.6094 16.2988 18.7441 16.5098 18.9082C16.5742 18.9609 16.9492 18.9785 17.793 18.9844C18.9766 18.9844 18.9824 18.9844 19.123 18.8379L19.2695 18.6973V17.0098C19.2637 15.7734 19.2461 15.2988 19.1934 15.2285C19.0352 15.0234 18.877 15 17.7461 15H16.6211L16.4512 15.1699ZM18.2734 16.9922V17.9883H17.7754H17.2773V16.9922V15.9961H17.7754H18.2734V16.9922Z" fill="#1D352D"/>
<path d="M24.5723 15.0703C24.3145 15.2109 24.3086 15.2344 24.3086 17.0039V18.6973L24.4551 18.8379C24.5957 18.9844 24.6016 18.9844 25.791 18.9844H26.9863L27.127 18.832L27.2676 18.6797V16.9805V15.2812L27.1035 15.1406C26.9395 15 26.9219 15 25.8145 15C25.1113 15 24.6426 15.0293 24.5723 15.0703ZM26.3008 16.9922V17.9883H25.8027H25.3047V16.9922V15.9961H25.8027H26.3008V16.9922Z" fill="#1D352D"/>
<path d="M2.45208 18.041C1.70794 18.2695 1.11028 19.166 0.752862 20.5898C0.436455 21.8496 0.20208 24.2812 0.330987 24.9316C0.512627 25.834 1.13372 26.5664 1.94231 26.8418L2.247 26.9472L2.2763 28.3301L2.3056 29.7187L2.46966 29.8594C2.6513 30.0117 2.80364 30.0351 2.997 29.9297C3.26067 29.7949 3.26653 29.7422 3.27239 28.3183V26.9648L3.54192 26.8711C4.22747 26.6367 4.85442 26.0449 5.10052 25.4121C5.42278 24.5566 5.17083 21.5859 4.64349 20.0039C4.40325 19.2832 4.16888 18.873 3.7763 18.4863C3.33685 18.041 2.91497 17.9004 2.45208 18.041ZM3.00872 19.0957C3.60052 19.4531 4.16302 21.5918 4.25091 23.8008C4.28021 24.6035 4.27435 24.7558 4.1806 24.9961C3.77044 26.0683 2.39349 26.3261 1.66106 25.4707C1.3388 25.0957 1.25677 24.7265 1.30364 23.8769C1.43841 21.3691 2.01849 19.3008 2.6513 19.0429C2.82122 18.9726 2.8095 18.9726 3.00872 19.0957Z" fill="#1D352D"/>
<path d="M10.6852 21.0175C10.3277 21.1054 10.193 21.5214 10.4273 21.8144C10.5445 21.9668 10.5563 21.9726 11.4059 21.9843L12.2672 22.0019L12.2848 24.3515L12.2965 26.7011L12.443 26.8359C12.6422 27.0234 12.9527 27.0234 13.1344 26.8476C13.2633 26.7187 13.2633 26.707 13.2809 24.3457L13.2984 21.9726H15.2848H17.2711L17.2887 24.3457C17.3063 26.707 17.3063 26.7187 17.4352 26.8476C17.6168 27.0234 17.9273 27.0234 18.1266 26.8359L18.2731 26.7011L18.2848 24.3515L18.3023 22.0019L19.1637 21.9843C20.0133 21.9726 20.025 21.9668 20.1422 21.8144C20.3121 21.6035 20.3004 21.3222 20.1129 21.1464L19.9606 21.0058L15.3844 21C12.8648 20.9941 10.7496 21 10.6852 21.0175Z" fill="#1D352D"/>
<path d="M24.6895 21.0177C24.625 21.0353 24.5137 21.0997 24.4434 21.17C24.3086 21.2872 24.3086 21.3048 24.3086 22.9981V24.7091L24.4609 24.8497C24.6074 24.9845 24.6426 24.9903 25.6445 25.0079C26.2949 25.0196 26.7637 25.0021 26.8984 24.961C27.2793 24.8497 27.2969 24.7677 27.2969 22.9981C27.2969 21.2696 27.2793 21.1583 26.9395 21.0411C26.7578 20.9767 24.9355 20.9591 24.6895 21.0177ZM26.2715 22.9981V23.9942L25.791 24.0118L25.3047 24.0294V22.9981V21.9669L25.791 21.9845L26.2715 22.0021V22.9981Z" fill="#1D352D"/>
<path d="M14.9439 24.1582C14.8091 24.3047 14.7739 24.5977 14.8735 24.7852C14.9556 24.9434 15.2485 25.0254 15.4595 24.9493C15.6704 24.8789 15.7524 24.7442 15.7524 24.4746C15.7524 24.0703 15.2251 23.8594 14.9439 24.1582Z" fill="#1D352D"/>
<path d="M7.5332 28.0723C7.35156 28.1777 7.25781 28.5 7.25781 29.0156C7.25781 29.584 7.36914 29.877 7.62695 29.9648C7.99023 30.0938 8.3125 29.7656 8.3125 29.25V29.0039H15.0801C22.2871 29.0039 22.1172 29.0098 22.2227 28.7402C22.2988 28.5352 22.2578 28.2949 22.1113 28.1543L21.9707 28.0078H14.8047C9.81836 28.0137 7.60352 28.0312 7.5332 28.0723Z" fill="#1D352D"/>
</svg>
