<svg width="94" height="94" viewBox="0 0 94 94" fill="none" xmlns="http://www.w3.org/2000/svg">
<path d="M4.75914 48.6023C12.2211 94 26.1772 94 49.5295 94C72.8819 94 91.8127 73.6747 91.8127 48.6023C101.762 14.4205 75.8666 0 52.5142 0C23.165 -4.09392e-05 -13.1488 16.0227 4.75914 48.6023Z" fill="#6551E0" fill-opacity="0.1"/>
<path opacity="0.929" fill-rule="evenodd" clip-rule="evenodd" d="M37.954 23.8906C39.3293 23.875 40.7044 23.8906 42.079 23.9375C42.3446 24.0156 42.5165 24.1875 42.5946 24.4531C42.7661 25.5749 42.9067 26.6999 43.0165 27.8281C44.295 28.0823 45.4669 28.5823 46.5321 29.3281C47.4274 28.589 48.3492 27.8859 49.2978 27.2187C49.4853 27.1562 49.6728 27.1562 49.8603 27.2187C50.9384 28.1719 51.954 29.1875 52.9071 30.2656C52.9837 30.5904 52.9524 30.9029 52.8134 31.2031C52.1502 31.9986 51.5095 32.8111 50.8915 33.6406C51.5051 34.8103 52.0364 36.0134 52.4853 37.25C53.583 37.3833 54.6768 37.5396 55.7665 37.7187C55.8759 37.8282 55.9852 37.9375 56.0946 38.0469C56.1572 39.5781 56.1572 41.1094 56.0946 42.6406C55.9808 42.7858 55.8402 42.8952 55.6728 42.9687C54.5729 43.1102 53.4791 43.2821 52.3915 43.4844C52.053 44.6928 51.5842 45.849 50.9853 46.9531C51.5487 47.83 52.1581 48.6737 52.8134 49.4844C52.9524 49.7846 52.9837 50.0971 52.9071 50.4219C51.9228 51.4062 50.9384 52.3906 49.954 53.375C49.6728 53.5625 49.3915 53.5625 49.1103 53.375C48.2735 52.7143 47.4454 52.0424 46.6259 51.3594C45.5279 52.0254 44.356 52.5253 43.1103 52.8594C42.9079 53.9782 42.736 55.1032 42.5946 56.2344C42.521 56.4018 42.4117 56.5424 42.2665 56.6562C40.7665 56.7188 39.2665 56.7188 37.7665 56.6562C37.4962 56.5073 37.3556 56.2729 37.3446 55.9531C37.212 54.9853 37.0869 54.0166 36.9696 53.0469C36.9408 52.9711 36.8939 52.9086 36.829 52.8594C35.6412 52.5231 34.5318 52.023 33.5009 51.3594C32.6769 51.9644 31.88 52.605 31.1103 53.2812C30.731 53.5754 30.356 53.5754 29.9853 53.2812C29.0634 52.3594 28.1415 51.4375 27.2196 50.5156C27.0241 50.125 27.0553 49.75 27.3134 49.3906C27.9228 48.5937 28.5321 47.7969 29.1415 47C28.4245 45.894 27.9558 44.6909 27.7353 43.3906C26.6072 43.2808 25.4822 43.1402 24.3603 42.9687C24.1433 42.8648 24.0026 42.6928 23.9384 42.4531C23.8489 40.9468 23.8802 39.4468 24.0321 37.9531C24.2236 37.7559 24.458 37.6465 24.7353 37.625C25.705 37.5077 26.6738 37.3827 27.6415 37.25C28.0125 36.008 28.5125 34.8206 29.1415 33.6875C28.5383 32.8027 27.8977 31.9433 27.2196 31.1094C27.0321 30.7969 27.0321 30.4844 27.2196 30.1719C28.2068 29.1534 29.2224 28.1691 30.2665 27.2187C30.5293 27.148 30.7793 27.1792 31.0165 27.3125C31.8209 27.9876 32.649 28.6282 33.5009 29.2344C34.5597 28.6504 35.669 28.1817 36.829 27.8281C36.8939 27.7789 36.9408 27.7164 36.9696 27.6406C37.0952 26.5111 37.2514 25.3861 37.4384 24.2656C37.579 24.0811 37.7509 23.9561 37.954 23.8906ZM38.7978 25.4844C39.6103 25.4844 40.4227 25.4844 41.2353 25.4844C41.3214 26.455 41.4308 27.4238 41.5634 28.3906C41.5918 28.6145 41.67 28.8177 41.7978 29C42.4842 29.2185 43.1717 29.4373 43.8603 29.6562C44.7714 30.1118 45.6777 30.5649 46.579 31.0156C46.7477 31.0084 46.9039 30.9615 47.0478 30.875C47.8457 30.2643 48.6425 29.6549 49.4384 29.0469C50.0281 29.5426 50.5906 30.0739 51.1259 30.6406C51.1884 30.7031 51.1884 30.7656 51.1259 30.8281C50.4964 31.5511 49.9027 32.3011 49.3446 33.0781C49.2056 33.3783 49.1743 33.6909 49.2509 34.0156C50.0995 35.3106 50.6932 36.7168 51.0321 38.2344C51.0757 38.3685 51.1539 38.4778 51.2665 38.5625C52.3819 38.7822 53.5069 38.954 54.6415 39.0781C54.6415 39.9219 54.6415 40.7656 54.6415 41.6094C53.5735 41.7038 52.511 41.8444 51.454 42.0312C51.2509 42.1093 51.1102 42.25 51.0321 42.4531C50.7082 43.9565 50.1457 45.3627 49.3446 46.6719C49.268 46.9966 49.2994 47.3092 49.4384 47.6094C49.9697 48.2968 50.5009 48.9844 51.0321 49.6719C51.1242 49.7899 51.1554 49.9149 51.1259 50.0469C50.5933 50.5951 50.0464 51.1264 49.4853 51.6406C48.753 51.0803 48.0342 50.5021 47.329 49.9062C47.0195 49.6837 46.6759 49.6212 46.2978 49.7187C44.9483 50.6167 43.4796 51.2417 41.8915 51.5937C41.6678 51.7707 41.5584 52.005 41.5634 52.2969C41.4153 53.2619 41.306 54.2307 41.2353 55.2031C40.4227 55.2031 39.6103 55.2031 38.7978 55.2031C38.6726 54.1395 38.532 53.0771 38.3759 52.0156C38.3212 51.8748 38.2431 51.7498 38.1415 51.6406C36.5602 51.2562 35.0915 50.6156 33.7353 49.7187C33.4414 49.6447 33.1602 49.6759 32.8915 49.8125C32.1515 50.4557 31.3859 51.0651 30.5946 51.6406C30.0634 51.1093 29.5321 50.5781 29.0009 50.0469C28.9384 49.9531 28.9384 49.8594 29.0009 49.7656C29.4781 49.0925 29.9781 48.4362 30.5009 47.7969C30.6871 47.5807 30.7964 47.3307 30.829 47.0469C30.4169 46.2536 30.0262 45.441 29.6571 44.6094C29.4093 43.8679 29.1905 43.1179 29.0009 42.3594C28.954 42.1875 28.8446 42.0781 28.6728 42.0312C27.6158 41.8444 26.5534 41.7038 25.4853 41.6094C25.4853 40.7656 25.4853 39.9219 25.4853 39.0781C26.5902 38.9627 27.6839 38.7909 28.7665 38.5625C28.8446 38.4844 28.9228 38.4062 29.0009 38.3281C29.3448 36.7347 29.9698 35.266 30.8759 33.9219C30.9547 33.5825 30.8922 33.2699 30.6884 32.9844C30.0903 32.2102 29.4809 31.4446 28.8603 30.6875C29.4384 30.1094 30.0165 29.5312 30.5946 28.9531C31.329 29.5625 32.0634 30.1719 32.7978 30.7812C32.9983 30.9129 33.217 30.991 33.454 31.0156C34.2831 30.5802 35.1269 30.1583 35.9853 29.75C36.667 29.5123 37.3545 29.2936 38.0478 29.0937C38.193 28.9799 38.3023 28.8393 38.3759 28.6719C38.521 27.609 38.6616 26.5465 38.7978 25.4844Z" fill="#6551E0"/>
<path opacity="0.925" fill-rule="evenodd" clip-rule="evenodd" d="M62.1408 23.8906C65.5182 23.8201 67.9401 25.2888 69.4064 28.2969C70.7121 32.0667 69.7589 35.1135 66.547 37.4375C63.0501 39.2237 59.9094 38.7393 57.1251 35.9844C54.7868 32.7416 54.8181 29.5229 57.2189 26.3281C58.5739 24.924 60.2145 24.1115 62.1408 23.8906ZM61.7658 25.4844C65.275 25.2924 67.4781 26.8862 68.3751 30.2656C68.6644 33.1412 67.5237 35.2193 64.9533 36.5C62.307 37.4439 60.0413 36.8657 58.1564 34.7656C56.4772 32.3403 56.5085 29.934 58.2501 27.5469C59.1944 26.458 60.3663 25.7705 61.7658 25.4844Z" fill="#6551E0"/>
<path opacity="0.916" fill-rule="evenodd" clip-rule="evenodd" d="M65.3288 28.2969C66.1133 28.3765 66.3789 28.7828 66.1257 29.5156C64.6386 31.034 63.123 32.5183 61.5788 33.9688C61.2975 34.1562 61.0163 34.1562 60.735 33.9688C60.2506 33.4843 59.7663 33 59.2819 32.5156C59.0163 31.5312 59.3757 31.1719 60.36 31.4375C60.6256 31.7031 60.8913 31.9688 61.1569 32.2344C62.4834 30.8291 63.874 29.5166 65.3288 28.2969Z" fill="#6551E0"/>
<path opacity="0.933" fill-rule="evenodd" clip-rule="evenodd" d="M39.0776 30.7343C43.3734 30.5608 46.5453 32.3421 48.5932 36.0781C50.4353 40.5997 49.5759 44.5216 46.0151 47.8437C42.5534 50.3391 38.9285 50.5892 35.1401 48.5937C31.1983 45.8328 29.8077 42.0983 30.9682 37.3906C32.3788 33.5854 35.0819 31.3666 39.0776 30.7343ZM39.5464 32.2343C38.8937 32.3267 38.2374 32.4673 37.5776 32.6562C34.6399 33.7823 32.843 35.8917 32.187 38.9843C31.7648 43.0468 33.3741 45.9844 37.0151 47.7968C37.1244 46.548 37.1401 45.298 37.062 44.0468C35.8648 43.153 35.146 41.9655 34.9057 40.4843C34.6925 37.9564 35.7081 36.1283 37.9526 34.9999C38.4002 34.8724 38.7283 35.013 38.937 35.4218C38.9527 36.4545 38.9996 37.4857 39.0776 38.5156C39.3589 38.6874 39.6401 38.8594 39.9214 39.0312C40.3739 38.9224 40.7958 38.7192 41.187 38.4218C41.2182 37.3906 41.2495 36.3593 41.2807 35.3281C41.456 35.092 41.6904 34.9669 41.9839 34.9531C43.2029 35.3746 44.1247 36.1558 44.7495 37.2968C45.8887 40.0403 45.295 42.3216 42.9682 44.1406C42.8901 45.3605 42.9058 46.5793 43.0151 47.7968C43.8815 47.4454 44.6627 46.961 45.3589 46.3437C47.8969 43.8005 48.6 40.8162 47.4682 37.3906C45.9349 33.99 43.2942 32.2712 39.5464 32.2343ZM37.3901 37.2031C37.1026 37.539 36.8682 37.914 36.687 38.3281C36.0419 40.2884 36.5732 41.8509 38.2807 43.0156C38.4003 43.2234 38.494 43.4422 38.562 43.6718C38.6089 45.2028 38.6245 46.734 38.6089 48.2656C39.5464 48.3905 40.4839 48.3905 41.4214 48.2656C41.4057 46.7028 41.4214 45.1402 41.4682 43.5781C41.5649 43.2932 41.7368 43.0588 41.9839 42.875C42.3663 42.6804 42.6944 42.4148 42.9682 42.0781C44.0811 40.4081 44.0186 38.783 42.7807 37.2031C42.7745 37.9316 42.712 38.6504 42.5932 39.3593C41.8824 39.8477 41.148 40.3009 40.3901 40.7187C40.1401 40.7812 39.8901 40.7812 39.6401 40.7187C38.8962 40.2921 38.1931 39.8078 37.5307 39.2656C37.5147 38.5614 37.4678 37.8739 37.3901 37.2031Z" fill="#6551E0"/>
<path opacity="0.929" fill-rule="evenodd" clip-rule="evenodd" d="M58.1097 49.2969C59.1818 49.2542 60.2443 49.301 61.2972 49.4375C61.4278 49.5473 61.506 49.6879 61.5316 49.8594C61.6099 50.4854 61.688 51.1103 61.766 51.7344C62.4167 51.8836 63.0261 52.1336 63.5941 52.4844C64.1146 52.0598 64.6614 51.6692 65.2347 51.3125C65.5425 51.2429 65.8238 51.3054 66.0785 51.5C66.6908 52.0811 67.269 52.6905 67.8128 53.3282C67.8869 53.622 67.8557 53.9032 67.7191 54.1719C67.3598 54.6407 67.0003 55.1094 66.641 55.5782C66.9193 56.2103 67.1693 56.8509 67.391 57.5C67.8909 57.5626 68.391 57.625 68.891 57.6875C69.1683 57.709 69.4027 57.8184 69.5941 58.0157C69.6967 58.5394 69.7435 59.0707 69.7347 59.6094C69.7435 60.1481 69.6967 60.6794 69.5941 61.2032C69.4704 61.3894 69.2986 61.4988 69.0785 61.5313C68.5677 61.5818 68.0677 61.6756 67.5785 61.8125C67.3553 62.4467 67.1053 63.0717 66.8285 63.6875C67.1527 64.2261 67.512 64.7418 67.9066 65.2344C67.9807 65.5282 67.9494 65.8095 67.8128 66.0782C67.2006 66.7218 66.56 67.3311 65.891 67.9063C65.5972 67.9803 65.3159 67.9491 65.0472 67.8125C64.6197 67.4193 64.1665 67.0599 63.6878 66.7344C63.1403 67.042 62.5622 67.2764 61.9535 67.4375C61.8016 68.1351 61.661 68.8383 61.5316 69.5469C61.4178 69.6921 61.2772 69.8014 61.1097 69.875C60.1028 69.962 59.1028 69.9308 58.1097 69.7813C57.9971 69.6966 57.9189 69.5873 57.8753 69.4532C57.7509 68.8333 57.6572 68.2083 57.5941 67.5782C56.9645 67.2946 56.3394 66.9821 55.7191 66.6407C55.2745 67.0113 54.8213 67.3707 54.3597 67.7188C54.091 67.8554 53.8098 67.8866 53.516 67.8125C52.7467 67.1996 52.0748 66.4965 51.5003 65.7032C51.4378 65.5469 51.4378 65.3907 51.5003 65.2344C51.8546 64.6614 52.2452 64.1146 52.6722 63.5938C52.3303 62.9882 52.0803 62.3476 51.9222 61.6719C51.2298 61.5932 50.5422 61.4838 49.8597 61.3438C49.7471 61.2591 49.6689 61.1498 49.6253 61.0157C49.5494 60.0112 49.5651 59.0113 49.6722 58.0157C49.766 57.9376 49.8597 57.8594 49.9535 57.7813C50.576 57.6723 51.201 57.5785 51.8285 57.5C52.0649 56.8551 52.3149 56.2145 52.5785 55.5782C52.3075 55.1032 51.9794 54.6658 51.5941 54.2657C51.3995 54.0109 51.3369 53.7297 51.4066 53.4219C52.0472 52.6563 52.7503 51.9531 53.516 51.3125C53.7035 51.25 53.891 51.25 54.0785 51.3125C54.5965 51.7213 55.1278 52.1118 55.6722 52.4844C56.2904 52.2111 56.8998 51.9299 57.5003 51.6407C57.5711 50.9809 57.6649 50.3247 57.7816 49.6719C57.8463 49.4985 57.9556 49.3734 58.1097 49.2969ZM59.141 50.7969C59.4595 50.7669 59.7721 50.7981 60.0785 50.8907C60.1794 51.4168 60.2575 51.9481 60.3128 52.4844C60.3453 52.7045 60.4547 52.8764 60.641 53C61.5783 53.1766 62.422 53.5516 63.1722 54.125C63.4138 54.2422 63.6638 54.2735 63.9222 54.2188C64.3552 53.9422 64.7615 53.6297 65.141 53.2813C65.259 53.1892 65.384 53.158 65.516 53.1875C65.7035 53.375 65.891 53.5625 66.0785 53.75C65.5701 54.2538 65.1951 54.8319 64.9535 55.4844C65.3894 56.4514 65.7488 57.4515 66.0316 58.4844C66.1097 58.6876 66.2503 58.8282 66.4535 58.9063C67.0148 58.9998 67.5773 59.078 68.141 59.1407C68.1681 59.4787 68.1368 59.8068 68.0472 60.125C67.6097 60.1876 67.1723 60.25 66.7347 60.3125C66.5865 60.3788 66.4459 60.4569 66.3128 60.5469C66.0844 61.5453 65.7094 62.4828 65.1878 63.3594C65.1253 63.6094 65.1253 63.8594 65.1878 64.1094C65.5045 64.5708 65.8327 65.0239 66.1722 65.4688C65.9378 65.7032 65.7035 65.9375 65.4691 66.1719C64.9961 65.6183 64.4181 65.2433 63.7347 65.0469C63.2672 65.1711 62.8297 65.3742 62.4222 65.6563C61.9021 65.8505 61.3708 66.0067 60.8285 66.125C60.6114 66.229 60.4708 66.4009 60.4066 66.6407C60.3513 67.177 60.2732 67.7083 60.1722 68.2344C59.8658 68.3269 59.5533 68.3582 59.2347 68.3282C59.1798 67.7321 59.1016 67.1384 59.0003 66.5469C58.9223 66.3438 58.7816 66.2031 58.5785 66.125C57.6526 65.9276 56.8088 65.5526 56.0472 65C55.7972 64.9375 55.5473 64.9375 55.2972 65C54.8171 65.3238 54.364 65.6831 53.9378 66.0782C53.7503 65.8907 53.5628 65.7032 53.3753 65.5157C53.3128 65.4219 53.3128 65.3282 53.3753 65.2344C53.6878 64.7969 54.0004 64.3594 54.3128 63.9219C54.3676 63.6634 54.3363 63.4135 54.2191 63.1719C53.7201 62.3608 53.3763 61.4858 53.1878 60.5469C53.0642 60.3606 52.8923 60.2512 52.6722 60.2188C52.1681 60.1558 51.6681 60.0777 51.1722 59.9844C51.08 59.7099 51.0488 59.4287 51.0785 59.1407C51.6432 59.0845 52.2057 59.0064 52.766 58.9063C52.9334 58.8327 53.074 58.7234 53.1878 58.5782C53.4166 57.5788 53.7916 56.6413 54.3128 55.7657C54.3676 55.5072 54.3363 55.2573 54.2191 55.0157C53.7826 54.6063 53.4701 54.1376 53.2816 53.6094C53.4428 53.4166 53.6303 53.2603 53.8441 53.1407C54.2918 53.4317 54.7136 53.7598 55.1097 54.125C55.2764 54.191 55.4483 54.2379 55.6253 54.2657C56.5481 53.7179 57.5325 53.296 58.5785 53C58.7237 52.8862 58.833 52.7456 58.9066 52.5782C59.0078 51.9867 59.086 51.393 59.141 50.7969Z" fill="#6551E0"/>
<path opacity="0.926" fill-rule="evenodd" clip-rule="evenodd" d="M59.2347 55.5781C61.58 55.5225 63.0644 56.6163 63.6878 58.8593C63.9219 61.3466 62.8438 62.9247 60.4534 63.5937C57.8332 63.8165 56.2551 62.6447 55.7191 60.0781C55.658 57.6033 56.8299 56.1033 59.2347 55.5781ZM59.0472 57.1718C58.4071 57.4518 57.8914 57.8893 57.5003 58.4843C56.914 60.1077 57.3984 61.2796 58.9534 61.9999C60.8148 62.3029 61.9086 61.5217 62.2347 59.6562C61.9676 57.8185 60.905 56.9903 59.0472 57.1718Z" fill="#6551E0"/>
</svg>
