<svg width="94" height="94" viewBox="0 0 94 94" fill="none" xmlns="http://www.w3.org/2000/svg">
<path d="M89.2409 48.6023C81.7789 94 67.8228 94 44.4705 94C21.1181 94 2.1873 73.6747 2.1873 48.6023C-7.76196 14.4205 18.1334 0 41.4858 0C70.835 -4.09392e-05 107.149 16.0227 89.2409 48.6023Z" fill="#6551E0" fill-opacity="0.1"/>
<g clip-path="url(#clip0_411_718)">
<path opacity="0.927" fill-rule="evenodd" clip-rule="evenodd" d="M46.3906 22.9531C46.7656 22.9531 47.1406 22.9531 47.5156 22.9531C48.6993 23.7288 49.8868 24.51 51.0781 25.2969C52.2293 25.0135 53.3856 24.7479 54.5469 24.5C55.3136 24.3134 55.9542 24.5165 56.4688 25.1094C57.1685 26.1809 57.9028 27.2277 58.6719 28.25C59.8919 28.4288 61.1107 28.6163 62.3281 28.8125C62.9056 28.8902 63.3275 29.1871 63.5938 29.7031C63.9386 31.051 64.2979 32.3948 64.6719 33.7344C65.8281 34.4063 66.9844 35.0781 68.1406 35.75C68.5761 36.134 68.7636 36.6184 68.7031 37.2031C68.5928 38.4606 68.4366 39.7106 68.2344 40.9531C69.1484 42.1467 70.0547 43.3342 70.9531 44.5156C70.9531 44.8906 70.9531 45.2656 70.9531 45.6406C70.2876 46.8304 69.6313 48.0336 68.9844 49.25C69.4119 50.4075 69.8025 51.5794 70.1562 52.7656C70.2585 53.2903 70.196 53.7903 69.9688 54.2656C69.071 55.1637 68.1179 55.9918 67.1094 56.75C66.9642 56.8638 66.8548 57.0044 66.7812 57.1719C66.7021 58.5167 66.6084 59.8604 66.5 61.2031C66.3417 61.6742 66.0448 62.0337 65.6094 62.2812C64.3478 62.707 63.0977 63.1601 61.8594 63.6406C61.3069 64.9018 60.7287 66.1519 60.125 67.3906C59.7449 67.7887 59.2762 68.0074 58.7188 68.0469C57.4552 67.9505 56.1896 67.9036 54.9219 67.9062C53.892 69.015 52.7983 70.0307 51.6406 70.9531C51.2656 70.9531 50.8906 70.9531 50.5156 70.9531C49.3561 70.4052 48.1687 69.9052 46.9531 69.4531C45.7376 69.9052 44.5501 70.4052 43.3906 70.9531C43.0156 70.9531 42.6406 70.9531 42.2656 70.9531C42.0718 70.8711 41.8843 70.7618 41.7031 70.625C40.7968 69.7187 39.8907 68.8125 38.9844 67.9062C37.7167 67.9036 36.4511 67.9505 35.1875 68.0469C34.6301 68.0074 34.1613 67.7887 33.7812 67.3906C33.1775 66.1519 32.5993 64.9018 32.0469 63.6406C30.8085 63.1601 29.5585 62.707 28.2969 62.2812C27.8615 62.0337 27.5646 61.6742 27.4062 61.2031C27.2979 59.8604 27.2041 58.5167 27.125 57.1719C27.0515 57.0044 26.9421 56.8638 26.7969 56.75C25.7883 55.9918 24.8352 55.1637 23.9375 54.2656C23.7102 53.7903 23.6477 53.2903 23.75 52.7656C24.1037 51.5794 24.4944 50.4075 24.9219 49.25C24.2749 48.0336 23.6186 46.8304 22.9531 45.6406C22.9531 45.2656 22.9531 44.8906 22.9531 44.5156C23.8515 43.3342 24.7578 42.1467 25.6719 40.9531C25.4697 39.7106 25.3134 38.4606 25.2031 37.2031C25.1426 36.6184 25.3301 36.134 25.7656 35.75C26.9219 35.0781 28.0781 34.4063 29.2344 33.7344C29.6083 32.3948 29.9677 31.051 30.3125 29.7031C30.5788 29.1871 31.0006 28.8902 31.5781 28.8125C32.7956 28.6163 34.0143 28.4288 35.2344 28.25C36.0034 27.2277 36.7378 26.1809 37.4375 25.1094C37.9521 24.5165 38.5927 24.3134 39.3594 24.5C40.5207 24.7479 41.677 25.0135 42.8281 25.2969C44.0194 24.51 45.2069 23.7288 46.3906 22.9531ZM46.7656 24.4531C46.8943 24.4384 47.0194 24.4541 47.1406 24.5C48.1093 25.1562 49.0782 25.8125 50.0469 26.4688C50.4549 26.7115 50.8924 26.8052 51.3594 26.75C52.6348 26.4386 53.916 26.1886 55.2031 26C56.001 27.1895 56.8448 28.3457 57.7344 29.4688C57.9918 29.6328 58.2731 29.7265 58.5781 29.75C59.7657 29.9375 60.9531 30.125 62.1406 30.3125C62.5502 31.6226 62.9097 32.9507 63.2188 34.2969C63.3125 34.4532 63.4062 34.6093 63.5 34.7656C64.6798 35.5197 65.8829 36.2385 67.1094 36.9219C67.1406 37.0625 67.1719 37.2031 67.2031 37.3438C67.0179 38.6707 66.8773 39.9988 66.7812 41.3281C66.888 41.6667 67.0443 41.9793 67.25 42.2656C68.0081 43.19 68.7425 44.1275 69.4531 45.0781C68.9244 46.1981 68.3463 47.2918 67.7188 48.3594C67.6186 48.6504 67.5405 48.9473 67.4844 49.25C67.856 50.5211 68.2466 51.7867 68.6562 53.0469C68.7188 53.1718 68.7188 53.2969 68.6562 53.4219C67.7968 54.1562 66.9375 54.8907 66.0781 55.625C65.7723 55.868 65.5379 56.1649 65.375 56.5156C65.2354 57.951 65.1104 59.3886 65 60.8281C63.593 61.3387 62.2023 61.8855 60.8281 62.4688C60.1344 63.7781 59.4781 65.1062 58.8594 66.4531C58.785 66.4935 58.7068 66.5248 58.625 66.5469C57.5022 66.4758 56.3772 66.4133 55.25 66.3594C54.7465 66.3484 54.2934 66.489 53.8906 66.7812C52.9931 67.726 52.0556 68.6166 51.0781 69.4531C49.723 68.8693 48.348 68.3381 46.9531 67.8594C45.5582 68.3381 44.1833 68.8693 42.8281 69.4531C41.8507 68.6166 40.9132 67.726 40.0156 66.7812C39.6129 66.489 39.1598 66.3484 38.6562 66.3594C37.5291 66.4133 36.4041 66.4758 35.2812 66.5469C35.1994 66.5248 35.1212 66.4935 35.0469 66.4531C34.4281 65.1062 33.7719 63.7781 33.0781 62.4688C31.7039 61.8855 30.3133 61.3387 28.9062 60.8281C28.7951 59.3889 28.6701 57.9513 28.5312 56.5156C28.3683 56.1649 28.1339 55.868 27.8281 55.625C27.1094 55.0313 26.3906 54.4375 25.6719 53.8438C25.4587 53.6783 25.3024 53.4751 25.2031 53.2344C25.6189 51.9088 26.0252 50.5807 26.4219 49.25C26.3657 48.9473 26.2876 48.6504 26.1875 48.3594C25.56 47.2918 24.9819 46.1981 24.4531 45.0781C25.3274 43.9375 26.1868 42.7812 27.0312 41.6094C27.093 41.3937 27.1398 41.175 27.1719 40.9531C26.9964 39.7526 26.8402 38.5495 26.7031 37.3438C26.7344 37.2031 26.7656 37.0625 26.7969 36.9219C28.0233 36.2385 29.2264 35.5197 30.4062 34.7656C30.5 34.6093 30.5938 34.4532 30.6875 34.2969C30.9966 32.9507 31.356 31.6226 31.7656 30.3125C32.9831 30.1163 34.2018 29.9288 35.4219 29.75C36.0644 29.6079 36.5488 29.2485 36.875 28.6719C37.4727 27.7731 38.0821 26.8825 38.7031 26C39.9902 26.1886 41.2715 26.4386 42.5469 26.75C43.0138 26.8052 43.4514 26.7115 43.8594 26.4688C44.8449 25.8097 45.8137 25.1378 46.7656 24.4531Z" fill="#6551E0"/>
<path opacity="0.926" fill-rule="evenodd" clip-rule="evenodd" d="M45.7348 28.6719C52.053 28.4805 57.2249 30.793 61.2504 35.6094C64.9872 40.6533 66.0184 46.2158 64.3441 52.2969C63.8555 54.0398 63.0586 55.618 61.9535 57.0312C61.1097 57.1558 60.7816 56.7965 60.9691 55.9531C64.3496 50.2639 64.5059 44.4826 61.4379 38.6094C58.1117 33.2413 53.268 30.4289 46.9066 30.1719C44.8879 30.1819 42.9348 30.5412 41.0473 31.25C40.2034 31.3746 39.8753 31.0152 40.0629 30.1719C40.2252 29.9734 40.4283 29.8328 40.6723 29.75C42.3303 29.1904 44.0178 28.831 45.7348 28.6719Z" fill="#6551E0"/>
<path opacity="0.924" fill-rule="evenodd" clip-rule="evenodd" d="M37.3905 31.2968C38.2068 31.2534 38.5349 31.6284 38.3749 32.4218C31.9973 36.7108 29.3723 42.6795 30.4999 50.3281C31.6289 55.0427 34.2383 58.6834 38.328 61.25C42.86 63.8719 47.61 64.3406 52.578 62.6562C55.0802 61.6871 57.2678 60.2496 59.1405 58.3437C59.7727 58.1751 60.1477 58.4094 60.2655 59.0468C60.2136 59.2447 60.1354 59.4322 60.0311 59.6093C54.7699 64.6552 48.598 66.2333 41.5155 64.3437C34.299 61.8025 30.0646 56.7556 28.8124 49.2031C28.2158 43.0542 30.1064 37.8199 34.4843 33.5C35.4171 32.7064 36.3858 31.972 37.3905 31.2968Z" fill="#6551E0"/>
<path opacity="0.931" fill-rule="evenodd" clip-rule="evenodd" d="M47.3281 33.0781C49.2258 33.0546 50.3977 33.9609 50.8438 35.7968C50.8799 37.1563 50.8642 38.5157 50.7969 39.875C50.8126 40.4218 50.8281 40.9687 50.8438 41.5156C50.8906 41.5625 50.9375 41.6093 50.9844 41.6562C53.3907 41.6874 55.7969 41.7187 58.2031 41.75C59.5088 42.2125 60.087 43.1344 59.9375 44.5156C59.8134 45.0296 59.579 45.4827 59.2344 45.875C60.0116 47.252 59.7928 48.4552 58.5781 49.4843C58.9789 50.3521 58.9321 51.1958 58.4375 52.0156C58.1982 52.2233 57.995 52.4577 57.8281 52.7187C58.3872 53.9777 58.1372 55.0401 57.0781 55.9062C56.7626 56.111 56.4188 56.2359 56.0469 56.2812C54.8907 56.3437 53.7344 56.3437 52.5781 56.2812C52.0713 56.0956 51.8995 55.7361 52.0625 55.2031C52.1719 55.0937 52.2812 54.9844 52.3906 54.875C53.5469 54.8437 54.7032 54.8124 55.8594 54.7812C56.5352 54.539 56.7383 54.0859 56.4688 53.4218C56.355 53.2766 56.2143 53.1673 56.0469 53.0937C55.5391 53.0788 55.0391 53.0163 54.5469 52.9062C54.1553 52.4418 54.1866 52.0043 54.6406 51.5937C55.2969 51.5625 55.9531 51.5312 56.6094 51.5C57.2852 51.2578 57.4883 50.8046 57.2188 50.1406C57.105 49.9954 56.9643 49.886 56.7969 49.8125C56.2891 49.7975 55.7891 49.735 55.2969 49.625C54.9053 49.1605 54.9366 48.7231 55.3906 48.3125C56.0781 48.2812 56.7657 48.2499 57.4531 48.2187C58.283 47.8503 58.4081 47.319 57.8281 46.625C57.2685 46.5264 56.706 46.4327 56.1406 46.3437C55.7491 45.8793 55.7804 45.4418 56.2344 45.0312C56.8357 45.0191 57.4294 44.9566 58.0156 44.8437C58.6506 44.2698 58.6193 43.7385 57.9219 43.25C55.5156 43.2187 53.1094 43.1874 50.7031 43.1562C50.0093 42.9936 49.5562 42.5718 49.3438 41.8906C49.3198 39.9215 49.3198 37.9527 49.3438 35.9843C49.106 35.1841 48.5747 34.7153 47.75 34.5781C47.5951 34.6081 47.5013 34.7018 47.4688 34.8593C47.43 36.3009 47.3362 37.7384 47.1875 39.1718C46.6557 41.7215 45.2651 43.6434 43.0156 44.9375C42.8056 45.029 42.5869 45.0759 42.3594 45.0781C42.3594 48.0781 42.3594 51.0781 42.3594 54.0781C43.423 54.4455 44.5168 54.6799 45.6406 54.7812C47.0157 54.8124 48.3906 54.8437 49.7656 54.875C50.4142 55.3784 50.3829 55.8471 49.6719 56.2812C47.9821 56.3589 46.2946 56.3277 44.6094 56.1875C43.8122 56.0937 43.0466 55.8905 42.3125 55.5781C42.0184 56.3413 41.4716 56.7944 40.6719 56.9375C39.4478 57.0239 38.2291 56.9927 37.0156 56.8437C36.3687 56.603 35.9468 56.1498 35.75 55.4843C35.6875 53.0468 35.6875 50.6093 35.75 48.1718C36.2188 47.5468 36.6875 47.5468 37.1563 48.1718C37.1875 50.5156 37.2188 52.8593 37.25 55.2031C37.3347 55.3157 37.444 55.3939 37.5781 55.4375C38.5469 55.5 39.5157 55.5 40.4844 55.4375C40.6186 55.3939 40.7279 55.3157 40.8125 55.2031C40.8751 51.2968 40.8751 47.3906 40.8125 43.4843C40.7656 43.3749 40.6876 43.2968 40.5781 43.25C39.5113 43.1739 38.4488 43.1895 37.3906 43.2968C37.3258 43.346 37.2789 43.4086 37.25 43.4843C37.2188 44.1406 37.1875 44.7968 37.1563 45.4531C36.8738 45.9251 36.4831 46.0345 35.9844 45.7812C35.8718 45.6965 35.7936 45.5872 35.75 45.4531C35.6875 44.7031 35.6875 43.9531 35.75 43.2031C35.9167 42.446 36.3698 41.9616 37.1094 41.75C38.4908 41.661 39.8658 41.6922 41.2344 41.8437C41.9137 42.2155 42.3044 42.7936 42.4063 43.5781C44.307 42.3713 45.432 40.6526 45.7813 38.4218C45.8439 37.0125 45.9376 35.6062 46.0625 34.2031C46.3281 33.6399 46.75 33.2649 47.3281 33.0781Z" fill="#6551E0"/>
</g>
<defs>
<clipPath id="clip0_411_718">
<rect width="48" height="48" fill="white" transform="translate(23 23)"/>
</clipPath>
</defs>
</svg>
