<svg width="100" height="82" viewBox="0 0 100 82" fill="none" xmlns="http://www.w3.org/2000/svg">
<path d="M57.8711 0.589867C51.5039 1.19534 46.1523 5.86331 44.5313 12.1719C44.0039 14.2422 44.0039 17.2696 44.5313 19.4766C45.918 25.2383 50.6836 29.8282 56.4453 30.9219L57.7148 31.1563L57.7734 32.8946L57.832 34.6133L56.9922 33.7735C53.8281 30.5899 48.8086 29.3594 44.1992 30.6485C41.8945 31.2735 41.6406 32.0742 42.7539 35.1211C44.8047 40.7657 49.9805 44.2032 55.8984 43.8711L57.8125 43.7735V48.6563C57.8125 53.2657 57.793 53.5196 57.4609 53.4219C52.7148 51.8985 40.5469 48.5 38.9063 48.2266C34.8828 47.5235 32.0313 47.7383 25.7227 49.2032C23.8281 49.6328 22.2656 49.9844 22.207 49.9844C22.168 49.9844 22.0703 49.3203 22.0313 48.5196C21.9141 46.7227 21.3477 45.7461 20.0781 45.1211C19.2383 44.7305 18.9648 44.711 11.0742 44.711C4.17969 44.711 2.8125 44.75 2.20703 45.0039C1.23047 45.4141 0.800781 45.8242 0.371094 46.7617C0.0195313 47.5039 0 48.4024 0 62.543C0 75.6094 0.0390625 77.6211 0.292969 78.2461C0.683594 79.1836 1.09375 79.6328 1.99219 80.0821C2.67578 80.4336 3.26172 80.4532 11.0352 80.4532C18.9844 80.4532 19.3945 80.4336 20.1172 80.0625C20.5469 79.8477 21.1328 79.3008 21.4258 78.8711C21.875 78.1875 21.9727 77.7969 22.0508 76.1758L22.168 74.2617L33.1055 77.4453C39.1211 79.2032 44.707 80.7657 45.5078 80.9414C50.5273 81.9766 55.9961 81.5274 60.625 79.6719C65 77.9336 96.0547 64.3399 96.7578 63.8516C97.9102 63.0703 98.7891 62.0157 99.3945 60.7266C100.059 59.3008 100.098 57.1133 99.4727 55.9414C98.3008 53.7539 95.5664 52.6602 92.3828 53.1094C91.6211 53.2266 86.4258 54.418 80.8789 55.7657L70.7617 58.2266L69.668 57.4453C68.7891 56.8399 67.832 56.4688 64.7656 55.5508L60.9375 54.418V49.125V43.8321L63.6133 43.8125C66.0156 43.8125 66.4844 43.7539 67.9102 43.2852C71.8945 41.9571 75.2344 38.461 76.4453 34.3789C76.9336 32.7383 76.8555 31.7422 76.25 31.2539C74.9805 30.2578 70.332 29.8477 67.7734 30.5117C65.8984 31 63.9453 32.0352 62.3438 33.3828L60.9375 34.5547V32.8946C60.9375 31.2539 60.9375 31.2344 61.4844 31.1367C64.8438 30.4336 66.9922 29.5157 68.9258 27.9336C72.5195 25.043 74.5313 21.1563 74.7461 16.6641C75.2149 7.13284 67.3828 -0.328102 57.8711 0.589867ZM62.8906 4.08597C64.6094 4.55472 66.4453 5.668 67.9883 7.21097C70.6836 9.88675 71.8164 12.8164 71.6211 16.4883C71.4453 19.6914 70.3125 22.25 68.0664 24.4961C63.2422 29.3203 55.6641 29.2813 50.7813 24.3985C48.3984 22.0157 47.2656 19.3008 47.2656 15.961C47.2656 13.7344 47.5391 12.5235 48.4375 10.6289C50.3516 6.66409 53.9453 4.1055 58.2031 3.71487C59.668 3.57816 61.6211 3.73441 62.8906 4.08597ZM51.0742 33.793C52.5977 34.2617 54.4141 35.4532 55.4688 36.6641C56.25 37.5625 57.7539 40.3555 57.5586 40.5313C57.5 40.5899 56.7969 40.6875 55.9766 40.7461C52.3438 41.0196 48.9258 39.3789 46.8555 36.3711C46.1133 35.3164 45.4492 33.7539 45.6445 33.5586C46.1328 33.0899 49.2578 33.2266 51.0742 33.793ZM73.3008 33.5586C73.3789 33.6367 73.0859 34.418 72.6563 35.2774C71.2891 38.0313 68.6524 40.043 65.6641 40.6289C64.5313 40.8438 61.6406 40.7852 61.3867 40.5313C61.1719 40.3164 62.6758 37.543 63.4961 36.625C64.9414 35.0039 67.4609 33.6367 69.6289 33.3242C70.4102 33.2071 73.1055 33.3828 73.3008 33.5586ZM18.8477 62.5821V77.2305H11.0352H3.22266L3.16406 62.7774C3.14453 54.8282 3.16406 48.2071 3.22266 48.0703C3.28125 47.875 4.96094 47.836 11.0742 47.875L18.8477 47.9336V62.5821ZM39.7461 51.5274C43.5156 52.4649 67.3242 59.5938 67.7734 59.9063C68.0469 60.1211 68.457 60.5703 68.7109 60.9414C69.8438 62.5821 68.2422 64.6328 65.8399 64.6328C65.3125 64.6328 59.0039 63.3633 51.8359 61.8008C40.5469 59.3594 38.7109 59.0274 38.2813 59.2227C37.2461 59.711 37.0703 61.2149 37.9883 61.8203C38.2227 61.9766 44.2969 63.3828 51.4648 64.9258C61.0742 67.0157 64.8633 67.7578 65.8399 67.7578C69.2578 67.7578 72.0703 65.2969 72.1484 62.25C72.168 61.4297 72.2461 61.0977 72.4609 61.0196C73.6328 60.6875 92.2852 56.2539 92.9883 56.1563C94.3359 55.961 95.8008 56.3516 96.3867 57.0547C96.9727 57.7578 97.0117 58.5196 96.5039 59.5157C95.6641 61.1367 95.7422 61.0977 77.4414 69.0274C67.8711 73.168 59.4727 76.7813 58.7305 77.0352C55.1953 78.3242 50.1953 78.6758 46.5625 77.9336C45.5664 77.7188 39.668 76.0782 33.418 74.2813L22.0703 70.9805V62.0938V53.2071L25.4492 52.4453C31.6016 51.0586 32.2461 50.961 35.3516 51.0586C37.2852 51.1172 38.6914 51.2539 39.7461 51.5274Z" fill="#25C78C"/>
<path d="M58.7891 5.90236C58.1836 6.21486 57.8125 6.91799 57.8125 7.81642C57.8125 8.44142 57.7344 8.55861 57.0117 8.87111C55.3906 9.6133 54.2578 11.7031 54.5898 13.4024C54.9609 15.3945 56.1523 16.5078 58.7695 17.2891C61.4258 18.0703 61.7188 18.2461 61.7188 18.9297C61.7188 19.7695 60.7617 20.3555 59.5898 20.2383C58.6133 20.1406 57.8906 19.6524 57.2852 18.7149C56.5625 17.6016 56.2891 17.3672 55.6055 17.3672C54.8047 17.3672 54.1016 18.0508 54.1016 18.8125C54.1016 20.0235 55.4492 21.8789 56.9141 22.6602C57.6953 23.0703 57.8125 23.207 57.8125 23.7344C57.8125 24.5938 58.1836 25.5508 58.5938 25.7656C59.7461 26.3906 60.9375 25.6094 60.9375 24.2617C60.9375 23.461 60.957 23.4414 62.2461 22.7969C63.3008 22.2891 63.6719 21.9766 64.1406 21.2149C64.8828 20.0039 65.0586 18.3438 64.5508 17.3477C63.7695 15.8242 62.7148 15.1016 60.4297 14.5547C58.7109 14.1445 57.8711 13.6367 57.6953 12.9531C57.5 12.1719 58.3203 11.5078 59.4727 11.5078C60.6055 11.5078 61.25 11.8203 61.543 12.5235C61.8359 13.2266 62.6172 13.8516 63.2227 13.8516C63.8867 13.8516 64.6484 13.0313 64.6484 12.2891C64.6484 10.9805 63.4766 9.47658 61.875 8.77345C60.957 8.38283 60.9375 8.34377 60.9375 7.52345C60.9375 6.13674 59.8828 5.33596 58.7891 5.90236Z" fill="#25C78C"/>
<path d="M9.66771 50.004C9.35521 50.0821 8.74974 50.4532 8.32006 50.8047C6.38646 52.4063 6.3474 55.4727 8.26146 57.1524C10.7224 59.3204 14.7068 57.8555 15.156 54.6133C15.5857 51.5274 12.7146 49.1055 9.66771 50.004ZM11.7576 53.2461C12.4412 53.8516 11.9529 55.0625 11.0154 55.0625C10.0779 55.0625 9.64818 53.9883 10.2927 53.2657C10.6833 52.836 11.2888 52.8165 11.7576 53.2461Z" fill="#25C78C"/>
</svg>