<svg width="49" height="49" viewBox="0 0 49 49" fill="none" xmlns="http://www.w3.org/2000/svg">
<g clip-path="url(#clip0_411_394)">
<path d="M23.7852 0.461349C23.4946 0.573849 0.863343 19.3332 0.610218 19.6801C0.338343 20.0645 0.300843 20.6926 0.525843 21.1801C0.769593 21.7145 2.79459 23.9738 3.23522 24.2082C3.66647 24.4426 4.28522 24.4332 4.76334 24.1801L5.13834 23.9832V35.4957C5.13834 46.4832 5.14772 47.0176 5.31647 47.3738C5.51334 47.8051 5.82272 48.1145 6.19772 48.2551C6.57272 48.3957 42.1415 48.3957 42.5165 48.2551C42.8915 48.1145 43.2008 47.8051 43.3977 47.3738C43.5665 47.0176 43.5758 46.4832 43.5758 35.4863C43.5758 29.1582 43.5946 23.9832 43.6133 23.9832C43.6415 23.9832 43.8102 24.0676 43.9883 24.1801C44.4008 24.4238 45.0665 24.4332 45.4977 24.1988C45.9196 23.9738 47.9446 21.7051 48.1883 21.1801C48.4133 20.6832 48.3758 20.0645 48.104 19.6801C48.0008 19.5488 46.9415 18.6207 45.7508 17.627L43.5758 15.8082V11.177C43.5758 7.21135 43.5571 6.48948 43.4352 6.19885C43.2383 5.7301 43.0415 5.52385 42.5915 5.3176C42.2633 5.1676 41.954 5.13947 39.9665 5.13947C37.5196 5.13947 37.2383 5.19572 36.7602 5.71135C36.404 6.09572 36.3571 6.4051 36.3571 8.14885V9.82697L34.1352 7.9801C32.9071 6.9676 30.4602 4.93322 28.6883 3.46135C26.9165 1.98948 25.304 0.686348 25.0883 0.564476C24.6852 0.34885 24.1977 0.311348 23.7852 0.461349ZM37.7915 13.0989L46.754 20.5426L46.304 21.0676C46.0508 21.3582 45.6008 21.8645 45.2915 22.1926L44.7383 22.7926L41.4571 20.0738C24.779 6.2176 24.7133 6.17072 24.3571 6.17072C23.9915 6.17072 24.5915 5.68322 9.22584 18.4426C6.38522 20.7957 4.04147 22.727 4.00397 22.7457C3.96647 22.7645 3.49772 22.2676 2.95397 21.6582L1.96022 20.5426L8.95397 14.7395C12.8071 11.5426 17.8415 7.37072 20.1571 5.44885L24.3665 1.96135L26.5977 3.80822C27.8165 4.82072 32.8508 9.00197 37.7915 13.0989ZM41.9821 10.5863C41.9821 12.7051 41.9446 14.4207 41.9071 14.402C41.8602 14.3832 40.9602 13.652 39.9008 12.7801L37.9696 11.1863L37.9602 8.9551L37.9508 6.73322H39.9665H41.9821V10.5863ZM33.2165 15.3207L41.9821 22.5863V34.6801V46.7645H24.3571H6.73209V34.6801V22.5957L14.3071 16.3145C18.4696 12.8551 22.3977 9.5926 23.0446 9.04885C23.6915 8.5051 24.2727 8.0551 24.3383 8.0551C24.404 8.04572 28.3977 11.3176 33.2165 15.3207Z" fill="#6551E0"/>
<path d="M17.3824 16.1176C16.8761 16.2395 16.4918 16.5395 16.2855 16.9895C15.9011 17.8426 16.0886 18.2926 17.4386 19.6426L18.4886 20.6926L18.3199 21.9395C18.2261 22.6238 18.1324 23.2988 18.1043 23.4301C18.0574 23.6738 18.0293 23.6832 16.6043 23.8895L15.1605 24.1051L14.1105 23.0738C13.5293 22.502 12.9199 21.9676 12.7418 21.8738C12.2824 21.6395 11.5324 21.7145 11.1105 22.0426C10.5855 22.4457 10.4449 22.8488 10.5105 23.8332C10.6886 26.8145 12.7886 29.3363 15.798 30.1895C16.3605 30.3488 16.7824 30.3957 17.6168 30.4051H18.7043L18.4699 31.0895C18.1699 31.9801 17.9168 32.2707 17.0543 32.6832C16.3886 33.002 16.1543 33.2082 13.5199 35.8332C11.0543 38.2988 10.6605 38.7301 10.398 39.2645C9.61052 40.8957 9.86365 42.6395 11.0543 43.9051C12.2824 45.2082 14.2043 45.5082 15.9199 44.6926C16.4543 44.4301 16.8761 44.0457 19.3511 41.5707C22.0136 38.9082 22.1918 38.7113 22.5105 38.0363C22.6886 37.6426 22.9511 37.2301 23.0918 37.127C23.448 36.8457 25.023 36.3301 25.1543 36.4613C25.2105 36.5176 25.2386 37.0051 25.2199 37.7457C25.1824 39.1145 25.3605 39.9676 25.8949 41.0926C26.973 43.3613 29.298 44.9363 31.8574 45.1332C32.4761 45.1801 32.6074 45.1613 32.9824 44.9645C33.6949 44.5988 34.0324 43.8676 33.8261 43.0988C33.7418 42.7988 33.4699 42.4613 32.6168 41.5801L31.5199 40.4363L31.7261 39.002C31.8386 38.2051 31.9511 37.5488 31.9699 37.5395C31.9793 37.5207 32.6543 37.4176 33.4511 37.3145L34.9043 37.1082L35.9824 38.177C36.573 38.7676 37.1543 39.2926 37.2668 39.3488C37.5574 39.4988 38.3824 39.4801 38.7011 39.3113C38.8511 39.2363 39.0949 39.0113 39.2355 38.8238C39.4793 38.5051 39.498 38.4207 39.498 37.5863C39.4886 36.5176 39.2636 35.6738 38.673 34.5301C38.2136 33.6395 36.9293 32.2895 36.048 31.7738C34.773 31.0238 32.9355 30.6301 31.623 30.8082L30.9668 30.902L30.123 30.0676L29.2793 29.2332L30.273 28.2395L31.2668 27.2457L32.5511 26.9738C33.948 26.6832 34.0511 26.6457 34.3793 26.2988C34.698 25.952 37.0043 21.7613 37.1261 21.2926C37.3136 20.627 37.1261 20.2426 36.1418 19.2301C34.5386 17.5707 34.4543 17.5707 31.3418 19.2957C30.1043 19.9801 28.9886 20.6363 28.8761 20.7395C28.5293 21.0488 28.4261 21.3207 28.1636 22.6238L27.9199 23.8426L26.9074 24.8551L25.9043 25.8582L25.3511 25.2957L24.7886 24.7426L24.7793 23.3082C24.7699 22.0895 24.7324 21.7801 24.5543 21.2176C23.7105 18.6488 21.7418 16.802 19.2574 16.2488C18.4418 16.0707 17.8043 16.0332 17.3824 16.1176ZM19.0418 17.8426C20.5324 18.227 21.948 19.3613 22.6043 20.6738C23.2136 21.9207 23.3355 22.9238 23.0824 24.8176L23.0261 25.2207L26.6636 28.8582C28.6793 30.8832 30.3949 32.5238 30.5168 32.5613C30.6386 32.5895 30.9199 32.5613 31.1355 32.5051C31.3511 32.4395 31.9324 32.3926 32.4293 32.3926C34.9605 32.402 37.1261 34.1082 37.7636 36.602C37.8668 36.9957 37.9511 37.4551 37.9511 37.6145C37.9511 37.8863 37.8949 37.8488 36.7418 36.6957C35.3261 35.2801 35.7293 35.3738 32.8511 35.7957C30.9293 36.0676 30.7136 36.1332 30.5449 36.452C30.4418 36.6395 29.8886 40.3426 29.8886 40.8207C29.8886 41.1301 30.0011 41.2707 31.0886 42.377L32.2793 43.5957L31.8105 43.5301C29.5793 43.2301 27.7793 41.8145 27.0761 39.7988C26.8136 39.0582 26.7293 37.6895 26.8793 36.8176C26.9918 36.2176 26.9824 36.152 26.8043 35.8707C26.7011 35.702 25.0605 34.0051 23.148 32.102L19.6793 28.6426L19.0886 28.7082C17.6074 28.8676 17.2605 28.8676 16.5761 28.727C14.1668 28.2207 12.3668 26.2801 12.1136 23.8988L12.0574 23.3738L13.1636 24.4613C13.7824 25.0613 14.373 25.6051 14.4949 25.6613C14.6636 25.7457 15.1324 25.7082 16.7918 25.4832C17.9355 25.3238 18.9668 25.1551 19.0793 25.1082C19.1918 25.0613 19.3511 24.9301 19.4261 24.8082C19.548 24.6113 20.1386 20.9363 20.1386 20.3457C20.1386 20.1676 19.8386 19.8113 18.948 18.902L17.7574 17.702H18.1324C18.3386 17.702 18.7418 17.7676 19.0418 17.8426ZM34.9136 20.2895L35.5793 21.0113L34.4074 23.102L33.2449 25.1926L32.7574 25.2863C32.4949 25.3426 31.8761 25.4832 31.3886 25.5863L30.498 25.7926L29.3261 26.9457L28.1449 28.1082L27.5918 27.5457L27.0386 26.9832L28.2199 25.7832L29.4011 24.5832L29.5511 23.8895C29.6261 23.5051 29.748 22.9051 29.8136 22.5488L29.9355 21.9207L32.0449 20.7488C33.2074 20.102 34.173 19.577 34.2011 19.577C34.2293 19.577 34.548 19.8957 34.9136 20.2895ZM23.2418 35.2801C22.1449 35.6832 21.6386 36.1426 21.1043 37.2488C20.8136 37.8676 20.5511 38.1582 18.1793 40.5113C15.4324 43.2488 15.2355 43.4082 14.2699 43.5301C12.348 43.7926 10.923 41.7488 11.7949 39.9957C11.9261 39.7332 12.9386 38.6551 14.6449 36.9582C17.1011 34.4926 17.3261 34.3051 17.9636 34.0145C18.948 33.5645 19.5949 32.8238 19.9511 31.727L20.0636 31.3707L21.9293 33.227L23.7855 35.0832L23.2418 35.2801Z" fill="#6551E0"/>
</g>
<defs>
<clipPath id="clip0_411_394">
<rect width="48" height="48" fill="white" transform="translate(0.357422 0.358215)"/>
</clipPath>
</defs>
</svg>
