<svg width="31" height="30" viewBox="0 0 31 30" fill="none" xmlns="http://www.w3.org/2000/svg">
<path d="M14.8108 1.01367C14.6643 1.05469 14.4592 1.14258 14.3655 1.20703C14.1721 1.33008 1.57448 11.666 1.35768 11.877C1.08815 12.1348 1.1526 12.2754 2.01979 13.3125C2.45924 13.8398 2.88112 14.3262 2.95729 14.3965C3.17409 14.5957 3.42018 14.5723 3.71901 14.3262C3.85377 14.2148 3.98268 14.1211 4.00026 14.1211C4.01784 14.1211 4.03541 16.8516 4.03541 20.1855V26.25H2.77565C1.09987 26.25 1.22291 26.1387 1.22291 27.6563C1.22291 28.7637 1.22291 28.7754 1.3694 28.916L1.51002 29.0625H15.2854H29.0608L29.2014 28.916C29.3479 28.7754 29.3479 28.7637 29.3479 27.6563C29.3479 26.5488 29.3479 26.5371 29.2014 26.3965C29.0842 26.2793 29.0022 26.25 28.7444 26.25H28.4339L28.3635 25.8867C28.2698 25.3887 28.0413 24.9492 27.6897 24.5977C27.4143 24.3223 26.7932 23.9648 26.594 23.9648C26.5413 23.9648 26.4534 23.8652 26.3889 23.748C26.1135 23.2383 25.4632 22.7578 24.8069 22.582C23.8108 22.3125 22.6214 22.7754 22.0823 23.6309C21.971 23.8125 21.8362 23.959 21.7893 23.9648C21.7424 23.9648 21.5374 24.041 21.3323 24.1406C20.6585 24.457 20.1604 25.1191 20.0139 25.8926L19.9436 26.25H17.1487H14.3479V20.7715V15.2871L14.2014 15.1465L14.0608 15H10.5979H7.13502L6.9944 15.1465L6.84791 15.2871V20.7715V26.25H5.91041H4.97291L4.98463 19.7637L5.00221 13.2773L10.1233 9.07031C12.9358 6.75586 15.262 4.86328 15.2854 4.86328C15.3147 4.86328 17.635 6.75586 20.4534 9.07031L25.5686 13.2715L25.5979 17.543L25.6272 21.8086L25.7678 21.9199C25.9553 22.0723 26.219 22.0605 26.3889 21.8848L26.5354 21.7441V17.9297C26.5354 15.8379 26.553 14.1211 26.5706 14.1211C26.5881 14.1211 26.7171 14.2148 26.8518 14.3262C27.1506 14.5723 27.3967 14.5957 27.6135 14.3965C27.6897 14.3262 28.1116 13.8398 28.551 13.3125C29.4124 12.2754 29.471 12.1523 29.219 11.877C29.1428 11.7949 28.51 11.2676 27.8128 10.6934L26.5354 9.65625L26.5237 5.59571C26.5061 1.59375 26.5061 1.5293 26.3831 1.3711C26.3186 1.28321 26.1897 1.1543 26.1018 1.08985C25.9436 0.972658 25.8733 0.966799 23.7229 0.966799C21.5725 0.966799 21.5022 0.972658 21.344 1.08985C21.2561 1.1543 21.1272 1.28321 21.0628 1.3711C20.9456 1.52344 20.9397 1.61719 20.9221 3.28125L20.9046 5.03321L18.6546 3.17578C17.4124 2.15625 16.2581 1.24805 16.094 1.1543C15.719 0.960939 15.2034 0.902346 14.8108 1.01367ZM15.596 1.95703C15.7776 2.03321 28.1292 12.1406 28.1643 12.2402C28.176 12.2695 27.9651 12.5449 27.7014 12.8555C27.2737 13.3711 27.2151 13.418 27.1331 13.3418C27.0745 13.2949 24.426 11.1152 21.2444 8.50196C16.551 4.64649 15.426 3.75 15.2854 3.75C15.1507 3.75 14.0257 4.64649 9.32643 8.50196C6.14479 11.1211 3.49635 13.2949 3.43776 13.3418C3.35573 13.418 3.29713 13.3652 2.8694 12.8555C2.60573 12.5449 2.39479 12.2695 2.40651 12.2402C2.44166 12.1523 14.7874 2.03321 14.9632 1.95703C15.1917 1.85742 15.3616 1.85742 15.596 1.95703ZM25.5979 5.36133C25.5979 8.67188 25.5921 8.84766 25.4983 8.78906C25.4397 8.75977 24.6018 8.07422 23.635 7.27735L21.8772 5.82422L21.8596 3.84961L21.8479 1.875H23.7229H25.5979V5.36133ZM13.4104 21.0938V26.25H10.5979H7.78542V21.0938V15.9375H10.5979H13.4104V21.0938ZM24.9299 23.6309C25.2698 23.8008 25.4807 24.0293 25.6917 24.4395C25.844 24.75 25.926 24.8086 26.2717 24.873C26.8753 24.9785 27.3323 25.4297 27.4436 26.0332L27.4846 26.25H24.1917H20.8987L20.9397 26.0332C21.0393 25.5 21.4612 25.0254 21.9534 24.9082C22.51 24.7676 22.5159 24.7676 22.6975 24.4219C22.9729 23.9063 23.26 23.6602 23.7815 23.4902C24.051 23.4023 24.6135 23.4727 24.9299 23.6309ZM28.4104 27.6563V28.125H15.2854H2.16041V27.6563V27.1875H15.2854H28.4104V27.6563Z" fill="#25C78C"/>
<path d="M16.3691 15.1465L16.2227 15.2871V18.2812V21.2754L16.3691 21.416L16.5098 21.5625H19.9727H23.4355L23.5762 21.416L23.7227 21.2754V18.2812V15.2871L23.5762 15.1465L23.4355 15H19.9727H16.5098L16.3691 15.1465ZM19.5039 16.875V17.8125H18.332H17.1602V16.875V15.9375H18.332H19.5039V16.875ZM22.7852 16.875V17.8125H21.6133H20.4414V16.875V15.9375H21.6133H22.7852V16.875ZM19.5039 19.6875V20.625H18.332H17.1602V19.6875V18.75H18.332H19.5039V19.6875ZM22.7852 19.6875V20.625H21.6133H20.4414V19.6875V18.75H21.6133H22.7852V19.6875Z" fill="#25C78C"/>
</svg>
