<svg width="46" height="46" viewBox="0 0 46 46" fill="none" xmlns="http://www.w3.org/2000/svg">
<path d="M20.7973 0.603142C18.416 0.828144 15.3692 1.70002 13.1192 2.79689C10.9442 3.85627 8.39417 5.70314 6.81917 7.36252C0.950424 13.55 -0.980826 22.1094 1.68167 30.1156C3.9223 36.8469 9.15355 42.0781 15.8754 44.3188C23.5629 46.8781 31.8036 45.2 37.9254 39.8375C39.4723 38.4781 41.5536 35.9938 41.7504 35.2813C41.9192 34.6531 41.5442 33.8844 40.9442 33.6313C40.1754 33.3125 39.4911 33.5563 38.8535 34.3813C36.6692 37.2313 34.5129 39.0406 31.5786 40.4938C26.1786 43.1563 19.841 43.1563 14.4129 40.4844C9.00355 37.8219 5.1223 32.8156 3.9223 26.9563C2.13167 18.2094 6.41605 9.45314 14.4129 5.51564C19.841 2.84377 26.1598 2.84377 31.5786 5.50627C37.7004 8.51564 41.7504 14.3938 42.416 21.2469C42.5567 22.6906 42.4629 24.8563 42.2098 26.2344C41.8161 28.4094 41.8723 28.8594 42.6129 29.3563C43.3254 29.825 44.1223 29.6469 44.6192 28.925C44.8535 28.5875 45.2567 26.6094 45.4067 25.0719C45.9035 19.9906 44.4879 14.5625 41.5442 10.2781C36.8848 3.50939 29.0098 -0.165607 20.7973 0.603142Z" fill="#6551E0"/>
<path d="M33.6412 13.3719C33.4819 13.4469 30.2569 16.8407 26.1881 21.2C22.2412 25.4375 18.9881 28.9063 18.96 28.9063C18.9225 28.9063 17.4975 27.2 15.7912 25.1188C12.9881 21.6969 12.6412 21.3125 12.2662 21.1719C11.5631 20.9 10.7944 21.1907 10.4194 21.875C10.185 22.3063 10.2319 22.9907 10.5412 23.4032C11.2162 24.3219 17.91 32.4125 18.0975 32.5344C18.4162 32.75 19.0631 32.7969 19.4381 32.6375C19.8412 32.4688 35.4506 15.7625 35.6475 15.2938C35.9006 14.6844 35.6569 13.9438 35.0756 13.5032C34.7662 13.2688 34.0162 13.2032 33.6412 13.3719Z" fill="#6551E0"/>
</svg>
