<svg width="100" height="78" viewBox="0 0 100 78" fill="none" xmlns="http://www.w3.org/2000/svg">
<path d="M6.66063 0.835953C3.51609 1.69533 1.11375 4.09767 0.293439 7.26173C0.0395324 8.27736 0.000469899 12.1641 0.000469899 39C0.000469899 72.457 -0.0581238 70.6406 1.13328 72.8672C1.81688 74.1367 3.34031 75.6602 4.60985 76.3438C6.66063 77.457 6.97313 77.4766 18.1841 77.4766C27.9497 77.4766 28.4966 77.457 28.9263 77.1055C29.4731 76.6563 29.5513 75.4844 29.0434 74.9766C28.7309 74.6641 27.813 74.6445 18.0083 74.5469C7.32469 74.4492 7.32469 74.4492 6.40672 74C5.23484 73.4141 4.06297 72.2422 3.47703 71.0703C2.8325 69.7617 2.8325 67.418 3.47703 66.1094C4.06297 64.9375 5.23484 63.7656 6.40672 63.1797C7.24656 62.7695 7.65672 62.7305 11.3286 62.6328C15.9184 62.5156 16.4263 62.3789 17.4809 60.8945L18.0669 60.0547L18.1255 51.5781L18.1841 43.1016H24.9614H31.7388L43.8091 58.7852L55.8598 74.4492L44.7075 74.5469L33.5552 74.6445L33.1841 75.1133C32.6763 75.7383 32.7153 76.4219 33.3013 76.9883L33.77 77.4766H64.8052C98.4575 77.4766 96.8755 77.5352 98.3208 76.4219C98.6919 76.1485 99.1997 75.5039 99.4341 74.9961L99.9028 74.0586L99.9614 42.711C100 20.6797 99.9614 11.0703 99.8052 10.3672C99.5512 9.19533 98.7114 8.10158 97.5981 7.49611L96.7778 7.06642L68.2622 7.00783L39.7466 6.96877L39.395 6.10939C38.9067 4.91798 37.9106 3.82423 36.6997 3.16017C35.7427 2.63283 35.4692 2.57423 33.8872 2.57423C32.4419 2.57423 31.9927 2.65236 31.2895 3.02345C29.9809 3.72658 28.9848 4.72267 28.4966 5.89455L28.0278 6.96877H23.1059H18.2036L18.1255 5.03517C18.0669 3.25783 18.0278 3.02345 17.4809 2.26173C16.4263 0.777359 15.8989 0.621109 11.5239 0.582047C8.65281 0.542984 7.46141 0.601578 6.66063 0.835953ZM14.8833 3.78517C15.2153 4.07814 15.2348 5.21095 15.2348 31.5781C15.2348 57.4961 15.2153 59.0781 14.9028 59.3711C14.6098 59.6055 13.8481 59.6836 10.7427 59.7422C6.54344 59.8399 5.645 60.0352 3.92625 61.2656C3.49656 61.5977 3.08641 61.8516 3.02781 61.8516C2.96922 61.8516 2.93016 49.8594 2.93016 35.2305C2.93016 13.0039 2.96922 8.43361 3.20359 7.69142C3.73094 5.95314 5.37156 4.27345 7.09031 3.72658C7.61766 3.57033 9.06297 3.47267 11.2114 3.47267C14.0239 3.45314 14.5708 3.4922 14.8833 3.78517ZM35.2739 5.71877C37.3052 6.6758 37.4614 9.72267 35.5473 11.0117C34.395 11.8125 32.52 11.5586 31.563 10.5039C31.0161 9.89845 30.9575 7.14455 31.4653 6.50002C32.2856 5.46486 34.0044 5.1133 35.2739 5.71877ZM28.3403 10.7188C28.4966 11.2461 29.0044 11.9492 29.688 12.6328C30.3716 13.3164 31.0747 13.8242 31.602 13.9805L32.4223 14.2539V16.7344C32.4223 19.6641 32.6177 20.1328 33.8872 20.1328C35.1567 20.1328 35.352 19.6641 35.352 16.7539V14.293L36.2895 13.9024C37.4614 13.4141 38.8677 12.0078 39.3559 10.836L39.7466 9.89845H54.7466H69.727L69.688 15.6992L69.6294 21.5195L63.0864 21.6172C58.477 21.6953 56.4263 21.793 56.1333 21.9492C55.2153 22.4766 55.0786 23.2383 55.0786 27.6524V31.7735H45.9966C37.1684 31.7735 36.895 31.793 36.5239 32.1641C35.938 32.75 35.9966 33.7852 36.6411 34.293C37.1684 34.7031 37.2661 34.7031 53.7505 34.7031C72.1098 34.7031 71.1919 34.7617 72.1294 33.4531L72.5591 32.8477L72.6177 21.3633L72.6763 9.89845H75.3911H78.1255V21.168C78.1255 33.6289 78.0864 33.2774 79.3559 34.1953C79.9028 34.586 80.1567 34.6055 88.4966 34.6641L97.0708 34.7227V37.4375V40.1719H70.4888C41.4458 40.1719 42.9302 40.1133 42.4028 41.2656C42.0708 42.0274 42.1489 42.5938 42.6958 43.4141C43.1645 44.0977 63.2817 70.3086 65.6645 73.3164L66.6411 74.5469H63.1255H59.6294L46.6997 57.75C39.5903 48.5117 33.5356 40.7969 33.2427 40.6016C32.7934 40.3086 31.9731 40.2695 25.4497 40.211L18.1645 40.1524V37.4375V34.7031H24.5122H30.8794L31.3481 34.2149C31.9536 33.6289 31.9731 32.8281 31.4067 32.2227L30.9966 31.7735H24.5708H18.1645V20.836V9.89845H23.1059H28.0669L28.3403 10.7188ZM96.6997 10.4649C97.0512 10.8945 97.0708 11.3633 97.0708 21.3438V31.7735H89.063H81.0552V20.836V9.87892L88.6919 9.93752L96.3286 9.99611L96.6997 10.4649ZM69.727 28.1602V31.7735H63.8677H58.0083V28.1602V24.5469H63.8677H69.727V28.1602ZM97.0708 58.1406C97.0708 68.8828 97.0122 73.2969 96.8559 73.6485C96.7192 73.9024 96.4067 74.2344 96.1137 74.332C95.7622 74.4883 91.6606 74.5274 82.9106 74.5078L70.2348 74.4492L59.6294 60.6797C53.7895 53.1016 48.3598 46.0508 47.5591 44.9961L46.0942 43.1016H71.5825H97.0708V58.1406Z" fill="#25C78C"/>
<path d="M66.856 46.1484C65.8403 46.5195 64.395 47.7695 63.7896 48.8242C62.0708 51.793 63.3794 55.8359 66.5044 57.1836L67.5786 57.6523V60.1133C67.5786 62.2226 67.6372 62.6523 67.9302 63.043C68.4575 63.6875 69.4536 63.6289 70.0591 62.9453C70.4693 62.457 70.5083 62.2422 70.5083 60.0156V57.6133L71.4068 57.2617C71.895 57.0859 72.7153 56.5 73.2427 55.9726C76.1333 53.082 75.3325 48.2773 71.6411 46.4414C70.6255 45.9336 70.2349 45.8359 69.063 45.8555C68.3013 45.8555 67.3052 45.9922 66.856 46.1484ZM70.7232 49.2344C73.3208 50.9922 71.8364 55.0742 68.7114 54.7812C64.8638 54.4101 65.1568 48.7656 69.0239 48.7656C69.7661 48.7656 70.2153 48.8828 70.7232 49.2344Z" fill="#25C78C"/>
<path d="M26.2695 51.3633C23.5938 52.2618 21.875 54.5274 21.875 57.1641C21.875 59.4102 23.3789 61.7539 25.3906 62.6133L26.3672 63.043V65.4844C26.3672 67.8086 26.3867 67.9454 26.8555 68.3946C27.4609 69.0196 28.3008 69.0391 28.8672 68.4336C29.2578 68.0235 29.2969 67.7696 29.2969 65.5235V63.0625L30.1367 62.7305C31.4844 62.2032 32.5391 61.1875 33.2227 59.8008C33.75 58.7266 33.8477 58.2969 33.8477 57.1641C33.8477 54.7422 32.3828 52.5157 30.1758 51.5977C29.1016 51.168 27.2266 51.0508 26.2695 51.3633ZM29.1797 54.4297C31.543 55.5821 31.543 58.7657 29.1797 59.8985C27.9492 60.504 26.8164 60.3282 25.8008 59.3516C24.4727 58.0821 24.4727 56.2461 25.8008 54.9766C26.8555 53.9805 27.9102 53.8047 29.1797 54.4297Z" fill="#25C78C"/>
</svg>