<svg width="48" height="48" viewBox="0 0 48 48" fill="none" xmlns="http://www.w3.org/2000/svg">
<path d="M44.8594 0.17775C45.0094 0.27132 45.7594 0.98243 46.5187 1.75904C47.8406 3.08769 47.9062 3.18126 47.9062 3.53682C47.9062 3.85495 47.6062 4.40699 45.8062 7.4105C44.25 9.99296 43.6406 10.938 43.4531 11.0222C43.3031 11.0877 42.7406 11.1345 42.0187 11.1345H40.8281L35.0344 16.9169L29.25 22.69L32.7 26.1333L36.1406 29.5672L36.8438 29.4175C37.9219 29.1836 39.9937 29.2772 41.1 29.6047C44.5875 30.6433 47.175 33.4877 47.8031 36.9965C47.9625 37.876 47.925 39.607 47.7281 40.5707C47.4562 41.8994 47.2219 42.2175 46.5187 42.2175C46.2187 42.2175 46.0312 42.0585 44.1187 40.1497L42.0469 38.0819H41.0625H40.0781L39.0187 39.1392L37.9688 40.1871V41.1228V42.0491L40.0875 44.1824L42.2156 46.3064L42.1594 46.7088C42.0844 47.2702 41.8125 47.476 40.7719 47.7193C37.6687 48.4398 34.4625 47.6164 32.2312 45.5017C30.7406 44.1076 29.8406 42.545 29.3719 40.5988C29.1656 39.7286 29.1469 37.8386 29.3344 36.8842L29.4656 36.2012L26.7094 33.4409L23.9531 30.6807L23.325 31.3637L22.6875 32.0468L23.0062 32.3742C23.6156 33.0105 23.6812 33.4222 23.2594 33.89C23.025 34.152 22.9219 34.1988 22.5937 34.1895C22.2656 34.1801 22.1344 34.1146 21.8156 33.7871L21.4219 33.4035L15.375 39.9719C12.0469 43.5743 9.14062 46.6713 8.90625 46.8491C6.30937 48.8327 2.55937 48.159 0.75 45.3801C0.103123 44.3789 -0.0187531 43.8175 0.0187492 42.1707C0.046875 40.8421 0.0656242 40.7111 0.309372 40.1871C0.449997 39.8783 0.703125 39.4199 0.871872 39.1766C1.05937 38.8865 3.69375 36.407 7.8 32.6362C11.4562 29.2959 14.4375 26.5263 14.4375 26.4889C14.4375 26.4514 14.2875 26.283 14.1094 26.1052C13.9312 25.9275 13.7625 25.6561 13.725 25.4877C13.6219 24.9357 14.0625 24.4304 14.6344 24.421C14.9062 24.421 15.075 24.5052 15.4312 24.8327L15.8906 25.2351L16.5656 24.6175L17.2406 23.9906L14.4562 21.2117L11.6625 18.4327L10.9219 18.5824C9.90937 18.7883 7.95 18.7228 6.9 18.4421C3.66562 17.5813 1.09687 15.0362 0.196873 11.7895C0.0281219 11.2 0 10.8257 0 9.40348C0 7.68185 0.112499 6.86781 0.431248 6.25962C0.599998 5.93214 1.05937 5.70758 1.41562 5.77308C1.575 5.80114 2.37187 6.53097 3.7125 7.86898L5.76562 9.91811H6.70312H7.64062L8.7 8.86079L9.75 7.81284V6.87717V5.94149L8.14687 4.35085C6.02812 2.24559 5.625 1.76839 5.625 1.34734C5.625 0.804653 5.98125 0.533306 7.02187 0.290031C9.23438 -0.233944 11.4937 0.0186882 13.4531 1.0105C14.2969 1.43155 14.7844 1.76839 15.525 2.44208C17.0531 3.81752 17.9719 5.40816 18.4781 7.57892C18.6469 8.27132 18.6375 10.2737 18.4781 11.1158L18.3469 11.7988L21.8062 15.2608L25.2656 18.7134L31.0031 12.9871L36.75 7.25144V6.05378C36.75 5.25845 36.7969 4.75319 36.8812 4.5567C36.9844 4.29471 37.5 3.95787 40.5562 2.12395C42.6469 0.879505 44.2125 -2.67029e-05 44.3437 -2.67029e-05C44.475 -2.67029e-05 44.7 0.0748291 44.8594 0.17775ZM8.55 1.96489C8.55937 2.01167 9.225 2.72278 10.0031 3.54617C10.7906 4.36956 11.475 5.14617 11.5312 5.28653C11.6812 5.67951 11.6531 8.17775 11.4937 8.54266C11.4187 8.71109 10.7062 9.50641 9.91875 10.3111L8.48438 11.7895H6.75H5.025L3.39375 10.1707L1.7625 8.56138L1.80937 9.73097C1.84687 10.7041 1.90312 11.0316 2.12812 11.7146C3.00937 14.2783 5.12812 16.159 7.73438 16.7017C8.63437 16.8795 9.99375 16.8795 10.8281 16.6924C11.9344 16.4304 12.15 16.4304 12.4875 16.6362C13.0219 16.9731 31.3875 35.3871 31.4531 35.6585C31.4906 35.7895 31.425 36.2386 31.3125 36.6783C30.6375 39.3076 31.3219 41.89 33.2156 43.8643C34.3031 44.9871 35.6812 45.7076 37.2656 45.9883C38.1281 46.138 39.2812 46.1754 39.2812 46.0538C39.2812 46.0164 38.625 45.3333 37.8187 44.538C37.0125 43.7427 36.3 42.9567 36.225 42.7883C36.0469 42.3672 36.0375 39.8783 36.225 39.4573C36.2906 39.2889 37.0312 38.4935 37.8562 37.6795L39.3562 36.2105H41.0719H42.7875L44.4094 37.8199L46.0312 39.4292V38.5497C46.0219 36.4819 45.3562 34.8912 43.875 33.4035C42.7312 32.2433 41.5781 31.607 40.1156 31.2982C39.2531 31.1111 37.8094 31.1204 36.9844 31.3076C35.8781 31.5696 35.6625 31.5696 35.325 31.3637C35.1562 31.2514 30.8344 26.9848 25.725 21.876C19.3125 15.4666 16.4062 12.5006 16.3687 12.3228C16.3312 12.1731 16.3875 11.7614 16.5187 11.2935C16.8 10.2456 16.8 8.5146 16.5187 7.476C16.1625 6.16606 15.3937 4.88419 14.3719 3.92044C13.35 2.94734 12.2156 2.35787 10.7812 2.0491C9.90937 1.87132 8.49375 1.81518 8.55 1.96489ZM41.3812 3.80816L38.625 5.47366V6.72746V7.99062L32.6062 14.007L26.5781 20.0234L27.2344 20.6783L27.8906 21.3333L33.8437 15.4011C37.1531 12.0982 39.9094 9.41284 40.0594 9.3567C40.2094 9.30992 40.8187 9.26313 41.4187 9.26313H42.525L44.1375 6.55904C45.0281 5.08068 45.75 3.82687 45.75 3.78009C45.75 3.70524 44.25 2.15202 44.1656 2.15202C44.1469 2.15202 42.8906 2.90056 41.3812 3.80816ZM17.8594 25.9649L17.2031 26.5637L19.2656 28.6316L21.3281 30.6994L21.975 30.0351L22.6312 29.3707L20.6156 27.359C19.5187 26.255 18.5906 25.3567 18.5625 25.3567C18.5344 25.3661 18.2156 25.6374 17.8594 25.9649ZM9.31875 33.7871C5.76562 37.0433 2.7375 39.8409 2.59687 40.0093C2.45625 40.1778 2.22187 40.5614 2.08125 40.8608C1.85625 41.3474 1.82812 41.5158 1.82812 42.3859C1.82812 43.2561 1.85625 43.4339 2.08125 43.9017C2.78437 45.4082 4.5375 46.3438 6.10312 46.0538C6.77812 45.9321 7.34062 45.6702 7.85625 45.2585C8.0625 45.09 10.7062 42.2643 13.7344 38.9707C16.7625 35.6772 19.4344 32.7859 19.6781 32.5333L20.1094 32.0935L18 29.9883C16.8375 28.8281 15.8625 27.883 15.8344 27.883C15.7969 27.883 12.8625 30.5403 9.31875 33.7871Z" fill="#6551E0"/>
<path d="M15.9843 14.8211C16.2843 15.1205 16.3593 15.4667 16.2186 15.8222C16.0686 16.1871 15.7874 16.3743 15.3936 16.3743C14.9811 16.3743 14.7561 16.2433 14.5686 15.8877C14.2499 15.2702 14.6718 14.5965 15.3936 14.5965C15.6561 14.5965 15.8249 14.662 15.9843 14.8211Z" fill="#6551E0"/>
<path d="M24.4492 23.2233C27.768 26.5356 30.543 29.3707 30.6086 29.5204C30.8711 30.1192 30.4118 30.7836 29.7368 30.7836C29.4086 30.7836 29.1368 30.5309 23.3618 24.7672C20.043 21.4643 17.268 18.6292 17.2024 18.4795C16.9399 17.8806 17.3993 17.2163 18.0743 17.2163C18.4024 17.2163 18.6742 17.469 24.4492 23.2233Z" fill="#6551E0"/>
<path d="M32.9345 31.7286C33.2064 31.8877 33.3939 32.3649 33.3377 32.7111C33.2252 33.3005 32.4095 33.6187 31.9127 33.2631C31.2002 32.7766 31.5564 31.6257 32.4095 31.6257C32.6064 31.6257 32.8408 31.6725 32.9345 31.7286Z" fill="#6551E0"/>
<path d="M15.15 32.5427C15.4125 32.7485 15.5625 33.0479 15.5625 33.3754C15.5625 33.5906 14.8594 34.3392 11.1375 38.0538C8.175 41.0105 6.60938 42.5076 6.4125 42.5731C5.83125 42.7696 5.25 42.3298 5.25 41.6936C5.25 41.3099 5.2875 41.2725 9.73125 36.8468C14.1469 32.4398 14.2125 32.3743 14.5781 32.3743C14.7937 32.3743 15.0375 32.4491 15.15 32.5427Z" fill="#6551E0"/>
</svg>
