<svg width="94" height="94" viewBox="0 0 94 94" fill="none" xmlns="http://www.w3.org/2000/svg">
<path d="M4.75914 48.6023C12.2211 94 26.1772 94 49.5295 94C72.8819 94 91.8127 73.6747 91.8127 48.6023C101.762 14.4205 75.8666 0 52.5142 0C23.165 -4.09392e-05 -13.1488 16.0227 4.75914 48.6023Z" fill="#6551E0" fill-opacity="0.1"/>
<g clip-path="url(#clip0_411_721)">
<path opacity="0.936" fill-rule="evenodd" clip-rule="evenodd" d="M43.7654 22.9531C44.2341 22.9531 44.7029 22.9531 45.1716 22.9531C45.2969 23.0947 45.4063 23.251 45.4998 23.4219C45.5914 25.5239 45.5602 27.6177 45.406 29.7031C45.3214 29.8158 45.212 29.8939 45.0779 29.9375C41.8567 30.3228 38.9817 31.5103 36.4529 33.5C36.1373 33.6762 35.8248 33.6762 35.5154 33.5C34.1248 32.1094 32.7341 30.7187 31.3435 29.3281C31.267 29.0033 31.2982 28.6908 31.4373 28.3906C35.0383 25.442 39.1477 23.6295 43.7654 22.9531ZM43.2966 24.6406C43.5154 24.6406 43.7342 24.6406 43.9529 24.6406C43.9841 25.9234 43.9528 27.2046 43.8591 28.4844C40.9996 29.0006 38.3902 30.0944 36.031 31.7656C35.1092 30.8438 34.1872 29.9219 33.2654 29C36.2735 26.7773 39.6172 25.3241 43.2966 24.6406Z" fill="#6551E0"/>
<path opacity="0.935" fill-rule="evenodd" clip-rule="evenodd" d="M48.7349 22.9531C49.2036 22.9531 49.6724 22.9531 50.1411 22.9531C54.7588 23.6295 58.8682 25.442 62.4693 28.3906C62.6083 28.6908 62.6396 29.0033 62.563 29.3281C61.1724 30.7187 59.7817 32.1094 58.3911 33.5C58.0818 33.6762 57.7692 33.6762 57.4536 33.5C54.9248 31.5103 52.0498 30.3228 48.8286 29.9375C48.6945 29.8939 48.5852 29.8158 48.5005 29.7031C48.3463 27.6177 48.3151 25.5239 48.4068 23.4219C48.5002 23.251 48.6096 23.0947 48.7349 22.9531ZM49.9536 24.6406C53.9163 25.1384 57.4788 26.5915 60.6411 29C59.7193 29.9219 58.7974 30.8438 57.8755 31.7656C55.5163 30.0944 52.907 29.0006 50.0474 28.4844C49.9537 27.2046 49.9224 25.9234 49.9536 24.6406Z" fill="#6551E0"/>
<path opacity="0.931" fill-rule="evenodd" clip-rule="evenodd" d="M70.9531 43.8594C70.9531 44.2656 70.9531 44.6719 70.9531 45.0781C70.8766 45.2323 70.7516 45.3416 70.5781 45.4062C68.4844 45.4688 66.3906 45.4688 64.2969 45.4062C64.1875 45.2968 64.0782 45.1875 63.9688 45.0781C63.5833 41.8565 62.3959 38.9815 60.4062 36.4531C60.2188 36.1093 60.2188 35.7657 60.4062 35.4219C61.7344 34.0937 63.0625 32.7657 64.3906 31.4375C64.5743 31.3502 64.7618 31.2721 64.9531 31.2031C65.1445 31.2721 65.332 31.3502 65.5156 31.4375C68.4917 35.0623 70.3043 39.2029 70.9531 43.8594ZM64.8594 33.2656C67.2761 36.3829 68.7448 39.9141 69.2656 43.8594C67.9614 43.8897 66.6644 43.8584 65.375 43.7656C64.8741 40.937 63.796 38.3589 62.1406 36.0312C63.0658 35.1217 63.9721 34.1998 64.8594 33.2656Z" fill="#6551E0"/>
<path opacity="0.931" fill-rule="evenodd" clip-rule="evenodd" d="M22.9531 45.0781C22.9531 44.6719 22.9531 44.2656 22.9531 43.8594C23.602 39.2029 25.4145 35.0623 28.3906 31.4375C28.7656 31.25 29.1406 31.25 29.5156 31.4375C30.8438 32.7657 32.1719 34.0937 33.5 35.4219C33.6875 35.7657 33.6875 36.1093 33.5 36.4531C31.5427 38.9949 30.3552 41.8699 29.9375 45.0781C29.8281 45.1875 29.7188 45.2968 29.6094 45.4062C27.5156 45.4688 25.4219 45.4688 23.3281 45.4062C23.1547 45.3416 23.0297 45.2323 22.9531 45.0781ZM28.9531 33.2656C29.903 34.1685 30.8405 35.0904 31.7656 36.0312C30.1103 38.3589 29.0321 40.937 28.5312 43.7656C27.2418 43.8584 25.9449 43.8897 24.6406 43.8594C25.1769 39.9455 26.6144 36.4143 28.9531 33.2656Z" fill="#6551E0"/>
<path opacity="0.927" fill-rule="evenodd" clip-rule="evenodd" d="M45.4522 34.2032C49.7769 33.8365 53.4175 35.2115 56.3741 38.3282C56.6247 39.2027 56.2966 39.5933 55.3897 39.5C51.9573 36.0337 47.8948 35.0025 43.2022 36.4063C41.8086 36.9266 40.5586 37.6766 39.4522 38.6563C38.4671 38.8277 38.1078 38.4371 38.3741 37.4844C40.3991 35.6672 42.7585 34.5735 45.4522 34.2032Z" fill="#6551E0"/>
<path opacity="0.933" fill-rule="evenodd" clip-rule="evenodd" d="M59.3281 40.2969C60.472 40.2223 61.097 40.7535 61.2031 41.8907C61.1952 42.4222 60.9764 42.8441 60.5469 43.1563C57.8907 44.7969 55.2343 46.4376 52.5781 48.0782C51.5071 51.4125 49.2259 52.8656 45.7344 52.4376C42.9437 51.6303 41.4437 49.7709 41.2344 46.8594C41.6022 43.3822 43.524 41.5072 47 41.2344C47.559 41.2275 48.1059 41.3056 48.6406 41.4688C49.2186 41.6801 49.7811 41.9145 50.3281 42.1719C53.3478 41.5807 56.3478 40.9556 59.3281 40.2969ZM59.0469 42.0782C56.9595 43.4665 54.8346 44.8102 52.6719 46.1094C52.4744 45.2361 52.1307 44.4235 51.6406 43.6719C51.7544 43.5248 51.9107 43.4467 52.1094 43.4376C54.4199 42.9661 56.7325 42.5129 59.0469 42.0782ZM46.2969 42.8282C49.1088 42.7966 50.7026 44.1716 51.0781 46.9532C50.6871 49.6105 49.1559 50.9387 46.4844 50.9376C44.2874 50.4902 43.0687 49.1465 42.8281 46.9063C43.0614 44.7519 44.2176 43.3926 46.2969 42.8282Z" fill="#6551E0"/>
<path opacity="0.91" fill-rule="evenodd" clip-rule="evenodd" d="M35.7031 41.2344C36.5617 41.1398 36.9211 41.5148 36.7812 42.3594C36.4133 43.206 36.132 44.0811 35.9375 44.9844C35.5575 45.407 35.12 45.4694 34.625 45.1719C34.5208 44.9947 34.4426 44.8072 34.3906 44.6094C34.6026 43.6141 34.8995 42.6454 35.2812 41.7031C35.3805 41.5007 35.5212 41.3444 35.7031 41.2344Z" fill="#6551E0"/>
<path opacity="0.93" fill-rule="evenodd" clip-rule="evenodd" d="M46.2962 44.3282C48.8574 44.2644 49.8731 45.4832 49.3431 47.9844C48.3806 49.5182 47.0838 49.8775 45.4524 49.0626C44.0695 47.7734 43.9758 46.3984 45.1712 44.9376C45.5181 44.6655 45.8931 44.4624 46.2962 44.3282ZM46.5774 45.9219C46.0343 46.2577 45.8624 46.7265 46.0618 47.3282C46.5522 47.9931 47.1147 48.0556 47.7493 47.5157C48.1412 46.427 47.7505 45.8957 46.5774 45.9219Z" fill="#6551E0"/>
<path opacity="0.931" fill-rule="evenodd" clip-rule="evenodd" d="M70.9531 48.7344C70.9531 49.1406 70.9531 49.5469 70.9531 49.9532C69.5423 58.6594 64.8861 64.9563 56.9844 68.8438C54.4009 69.9895 51.7134 70.6926 48.9219 70.9532C47.6094 70.9532 46.2969 70.9532 44.9844 70.9532C36.6013 70.0215 30.2419 65.959 25.9062 58.7657C24.3721 56.0005 23.3877 53.0629 22.9531 49.9532C22.9531 49.5469 22.9531 49.1406 22.9531 48.7344C23.0699 48.5093 23.2574 48.3687 23.5156 48.3125C25.5841 48.2219 27.6466 48.2531 29.7031 48.4063C29.8158 48.4909 29.8939 48.6003 29.9375 48.7344C30.9875 55.5012 34.6594 60.2043 40.9531 62.8438C47.39 64.9796 53.2025 63.8858 58.3906 59.5625C61.5575 56.5416 63.4637 52.8542 64.1094 48.5C64.2343 48.4375 64.3594 48.3751 64.4844 48.3125C66.4531 48.25 68.4219 48.25 70.3906 48.3125C70.6488 48.3687 70.8363 48.5093 70.9531 48.7344ZM24.6406 49.8594C25.9449 49.8291 27.2418 49.8603 28.5312 49.9532C29.705 56.0312 33.0018 60.5468 38.4219 63.5C43.9554 66.1158 49.5178 66.1782 55.1094 63.6875C60.7694 60.7921 64.1913 56.2139 65.375 49.9532C66.6644 49.8603 67.9614 49.8291 69.2656 49.8594C67.8604 58.3739 63.2042 64.3583 55.2969 67.8125C46.7701 70.8186 39.0201 69.4749 32.0469 63.7813C27.8962 60.0482 25.4275 55.4075 24.6406 49.8594Z" fill="#6551E0"/>
<path opacity="0.937" fill-rule="evenodd" clip-rule="evenodd" d="M43.1098 54.9219C45.6725 54.9062 48.235 54.9219 50.7973 54.9688C52.6627 55.5586 53.3033 56.793 52.7192 58.6719C52.3026 59.5128 51.6307 59.9971 50.7036 60.125C48.0435 60.2148 45.3873 60.1835 42.7348 60.0313C41.2205 59.3617 40.6735 58.2211 41.0942 56.6094C41.5032 55.7146 42.1751 55.1521 43.1098 54.9219ZM43.2973 56.5156C43.1234 56.6272 42.9516 56.7522 42.7817 56.8906C42.3678 57.6715 42.5708 58.2184 43.3911 58.5313C45.766 58.5938 48.1411 58.5938 50.5161 58.5313C50.741 58.4627 50.944 58.3533 51.1254 58.2031C51.5333 57.4725 51.3615 56.9255 50.6098 56.5625C48.1725 56.5156 45.735 56.5 43.2973 56.5156Z" fill="#6551E0"/>
</g>
<defs>
<clipPath id="clip0_411_721">
<rect width="48" height="48" fill="white" transform="translate(23 23)"/>
</clipPath>
</defs>
</svg>
