<svg width="94" height="94" viewBox="0 0 94 94" fill="none" xmlns="http://www.w3.org/2000/svg">
<path d="M89.2409 48.6023C81.7789 94 67.8228 94 44.4705 94C21.1181 94 2.1873 73.6747 2.1873 48.6023C-7.76196 14.4205 18.1334 0 41.4858 0C70.835 -4.09392e-05 107.149 16.0227 89.2409 48.6023Z" fill="#6551E0" fill-opacity="0.1"/>
<path opacity="0.93" fill-rule="evenodd" clip-rule="evenodd" d="M46.2971 24.4532C46.8372 24.4203 47.3684 24.4672 47.8908 24.5938C53.3971 28.7019 59.5534 31.3582 66.3596 32.5625C67.1485 32.9988 67.5703 33.6707 67.6252 34.5782C68.5677 41.1893 67.8177 47.5955 65.3752 53.7969C65.243 54.3787 64.8993 54.7537 64.3439 54.9219C63.8682 54.8368 63.6025 54.5555 63.5471 54.0782C66.2633 47.679 67.0289 41.054 65.8439 34.2032C65.7593 34.0906 65.65 34.0124 65.5158 33.9688C60.6702 33.1246 56.1078 31.4995 51.8283 29.0938C50.1656 28.1023 48.5405 27.0555 46.9533 25.9532C45.3134 27.1015 43.6259 28.1796 41.8908 29.1875C41.0149 29.4366 40.6242 29.1084 40.7189 28.2032C40.7925 28.0357 40.9018 27.8951 41.0471 27.7813C41.7971 27.3438 42.5471 26.9063 43.2971 26.4688C44.2901 25.7702 45.2901 25.0983 46.2971 24.4532Z" fill="#6551E0"/>
<path opacity="0.936" fill-rule="evenodd" clip-rule="evenodd" d="M36.8281 25.9531C37.1803 25.9129 37.5085 25.9754 37.8125 26.1406C38.0976 27.4058 38.4413 28.6557 38.8438 29.8906C39.3176 30.958 40.1144 31.6612 41.2344 32C42.2573 32.2858 43.2885 32.5358 44.3281 32.75C44.6109 32.8933 44.7358 33.1277 44.7031 33.4531C44.7358 33.7785 44.6109 34.0129 44.3281 34.1562C43.2885 34.3704 42.2573 34.6204 41.2344 34.9062C40.1144 35.245 39.3176 35.9482 38.8438 37.0156C38.4413 38.2505 38.0976 39.5004 37.8125 40.7656C37.4326 40.9945 37.042 41.0102 36.6406 40.8125C36.5819 40.7422 36.5351 40.664 36.5 40.5781C36.2858 39.5385 36.0358 38.5073 35.75 37.4844C35.4112 36.3644 34.7081 35.5675 33.6406 35.0937C32.4058 34.6913 31.1558 34.3476 29.8906 34.0625C29.6406 33.6563 29.6406 33.2499 29.8906 32.8437C31.1558 32.5586 32.4058 32.2149 33.6406 31.8125C34.7081 31.3387 35.4112 30.5418 35.75 29.4219C36.0358 28.399 36.2858 27.3677 36.5 26.3281C36.5647 26.1546 36.674 26.0296 36.8281 25.9531ZM37.1094 30.2656C37.4324 30.784 37.7606 31.3152 38.0938 31.8594C38.7376 32.5643 39.5033 33.0955 40.3906 33.4531C38.8594 34.0468 37.7968 35.1094 37.2031 36.6406C36.6094 35.1094 35.5468 34.0468 34.0156 33.4531C35.5599 32.8778 36.5911 31.8152 37.1094 30.2656Z" fill="#6551E0"/>
<path opacity="0.922" fill-rule="evenodd" clip-rule="evenodd" d="M46.2965 29.7032C46.8367 29.6703 47.3679 29.7172 47.8903 29.8438C50.1358 31.2636 52.4795 32.5136 54.9215 33.5938C55.3568 34.1674 55.2631 34.6362 54.6403 35C54.3818 35.0548 54.1319 35.0235 53.8903 34.9063C51.5701 33.8871 49.3515 32.6997 47.234 31.3438C46.9494 31.2839 46.6681 31.2996 46.3903 31.3907C45.7235 31.2455 45.4891 30.8392 45.6871 30.1719C45.854 29.9568 46.0572 29.8006 46.2965 29.7032Z" fill="#6551E0"/>
<path opacity="0.931" fill-rule="evenodd" clip-rule="evenodd" d="M26.7023 34.2031C27.3966 34.0799 27.7716 34.3611 27.8273 35.0468C26.994 41.1253 27.6659 47.0315 29.8429 52.7656C30.5211 54.2782 31.2711 55.747 32.0929 57.1718C32.1075 57.9713 31.7169 58.2682 30.9211 58.0624C30.8117 57.953 30.7023 57.8437 30.5929 57.7343C27.3623 52.2813 25.8155 46.375 25.9523 40.0156C25.9045 38.2244 26.0139 36.4431 26.2804 34.6718C26.3765 34.4668 26.5172 34.3105 26.7023 34.2031Z" fill="#6551E0"/>
<path opacity="0.894" fill-rule="evenodd" clip-rule="evenodd" d="M57.4527 34.6719C58.0605 34.7879 58.6542 34.9598 59.2339 35.1875C59.7544 35.6973 59.7232 36.1661 59.1402 36.5938C58.3154 36.6417 57.5811 36.4074 56.937 35.8906C56.7591 35.3175 56.9309 34.9112 57.4527 34.6719Z" fill="#6551E0"/>
<path opacity="0.929" fill-rule="evenodd" clip-rule="evenodd" d="M61.8594 36.1719C62.5948 36.2023 63.0792 36.5773 63.3125 37.2969C63.7732 41.8302 63.2107 46.2364 61.625 50.5156C60.9133 50.996 60.429 50.8242 60.1719 50C61.5511 46.0638 62.0981 42.0169 61.8125 37.8594C61.11 37.2531 61.1257 36.6906 61.8594 36.1719Z" fill="#6551E0"/>
<path opacity="0.928" fill-rule="evenodd" clip-rule="evenodd" d="M31.0147 36.7343C31.4575 36.6455 31.8168 36.7705 32.0929 37.1093C31.6986 41.787 32.3549 46.3182 34.0616 50.7031C36.605 56.5594 40.8863 60.5282 46.9054 62.6093C47.2118 62.5697 47.5087 62.4916 47.796 62.3749C48.6511 62.002 49.5105 61.6426 50.3741 61.2968C50.8262 61.3739 51.0919 61.6396 51.171 62.0937C51.1219 62.3199 51.0281 62.5231 50.8897 62.7031C49.843 63.2888 48.7492 63.7732 47.6085 64.1562C46.9658 64.2532 46.3408 64.1907 45.7335 63.9687C37.8596 60.8045 33.0002 55.0702 31.1554 46.7656C30.5077 43.7661 30.2889 40.7349 30.4991 37.6718C30.5531 37.2815 30.725 36.9691 31.0147 36.7343Z" fill="#6551E0"/>
<path opacity="0.928" fill-rule="evenodd" clip-rule="evenodd" d="M55.0156 39.4532C56.2418 39.2773 57.2262 39.6835 57.9688 40.6719C58.1526 40.9497 58.3713 41.1997 58.625 41.4219C59.11 42.4593 59.0475 43.4593 58.4375 44.4219C54.7319 48.2212 50.9975 51.9869 47.2344 55.7188C46.3767 56.0533 45.5329 56.022 44.7031 55.6251C42.5598 53.5131 40.4504 51.3725 38.375 49.2032C37.8125 48.2032 37.8125 47.2032 38.375 46.2032C38.8594 45.7188 39.3437 45.2345 39.8281 44.7501C40.7656 44.1876 41.7031 44.1876 42.6406 44.7501C43.6407 45.7501 44.6406 46.75 45.6406 47.7501C45.9715 47.9426 46.2839 47.9114 46.5781 47.6563C49.0782 45.0938 51.5781 42.5313 54.0781 39.9688C54.3844 39.7691 54.6969 39.5973 55.0156 39.4532ZM55.2969 41.0469C55.5488 41.0316 55.7988 41.0472 56.0469 41.0938C56.6242 41.5763 57.0929 42.1388 57.4531 42.7813C57.385 42.9125 57.3381 43.0531 57.3125 43.2032C53.6668 46.9114 50.0262 50.6145 46.3906 54.3126C46.0968 54.3866 45.8156 54.3554 45.5469 54.2188C43.5625 52.172 41.5782 50.125 39.5938 48.0782C39.4963 47.7001 39.5587 47.3564 39.7813 47.0469C40.1094 46.7188 40.4375 46.3907 40.7656 46.0626C41.0781 45.8751 41.3907 45.8751 41.7031 46.0626C42.7082 47.0677 43.7082 48.0676 44.7031 49.0626C45.662 49.5256 46.5995 49.4944 47.5156 48.9688C50.1422 46.3522 52.736 43.7116 55.2969 41.0469Z" fill="#6551E0"/>
<path opacity="0.936" fill-rule="evenodd" clip-rule="evenodd" d="M60.0781 52.9531C60.4304 52.9129 60.7585 52.9753 61.0625 53.1406C61.3476 54.4058 61.6913 55.6557 62.0938 56.8906C62.5676 57.958 63.3645 58.6612 64.4844 59C65.5073 59.2858 66.5386 59.5358 67.5781 59.75C67.8609 59.8933 67.9859 60.1277 67.9531 60.4531C67.9859 60.7785 67.8609 61.0129 67.5781 61.1562C66.5386 61.3704 65.5073 61.6204 64.4844 61.9062C63.3645 62.245 62.5676 62.9482 62.0938 64.0156C61.6913 65.2505 61.3476 66.5004 61.0625 67.7656C60.6826 67.9945 60.292 68.0102 59.8906 67.8125C59.832 67.7422 59.7851 67.664 59.75 67.5781C59.5358 66.5385 59.2859 65.5073 59 64.4844C58.6612 63.3644 57.9581 62.5675 56.8906 62.0937C55.6558 61.6913 54.4058 61.3476 53.1406 61.0625C52.8906 60.6563 52.8906 60.2499 53.1406 59.8437C54.4058 59.5586 55.6558 59.2149 56.8906 58.8125C57.9581 58.3387 58.6612 57.5418 59 56.4219C59.2859 55.3989 59.5358 54.3677 59.75 53.3281C59.8147 53.1547 59.924 53.0296 60.0781 52.9531ZM60.3594 57.2656C60.6825 57.7839 61.0106 58.3152 61.3438 58.8594C61.9876 59.5643 62.7533 60.0955 63.6406 60.4531C62.1094 61.0468 61.0469 62.1094 60.4531 63.6406C59.8594 62.1094 58.7969 61.0468 57.2656 60.4531C58.8099 59.8778 59.8411 58.8152 60.3594 57.2656Z" fill="#6551E0"/>
<path opacity="0.89" fill-rule="evenodd" clip-rule="evenodd" d="M32.8906 59.1406C33.155 59.117 33.4049 59.1638 33.6406 59.2812C34.1503 59.6783 34.4941 60.1783 34.6719 60.7812C34.5876 61.3715 34.2438 61.6215 33.6406 61.5312C32.8952 61.0842 32.5047 60.4436 32.4688 59.6093C32.5648 59.4043 32.7055 59.248 32.8906 59.1406Z" fill="#6551E0"/>
<path opacity="0.926" fill-rule="evenodd" clip-rule="evenodd" d="M35.9837 62.1406C36.1772 62.1582 36.3647 62.205 36.5462 62.2812C39.4803 64.8342 42.8241 66.6778 46.5774 67.8125C46.8275 67.875 47.0774 67.875 47.3274 67.8125C50.1984 66.955 52.8547 65.6737 55.2962 63.9688C55.9172 63.8732 56.261 64.1388 56.3274 64.7656C56.3222 65.0104 56.2284 65.2136 56.0462 65.375C53.4581 67.1689 50.6456 68.5126 47.6087 69.4062C47.1711 69.4688 46.7337 69.4688 46.2962 69.4062C42.2192 68.2357 38.6098 66.2513 35.4681 63.4531C35.2002 62.8336 35.3721 62.3961 35.9837 62.1406Z" fill="#6551E0"/>
</svg>
