<svg width="95" height="94" viewBox="0 0 95 94" fill="none" xmlns="http://www.w3.org/2000/svg">
<path d="M46.0273 0.496112C45.5781 0.867206 45.5586 0.964862 45.5 4.40236L45.4414 7.93752L46.0273 8.52346C46.7305 9.24611 47.4531 9.28517 48.0977 8.62111C48.5859 8.15236 48.5859 8.1133 48.5859 4.55861C48.5859 1.06252 48.5664 0.964862 48.1367 0.554706C47.5703 0.0273619 46.6328 0.00783062 46.0273 0.496112Z" fill="white"/>
<path d="M32.8047 6.04297C32.5312 6.33593 32.375 6.74609 32.375 7.17578C32.375 7.80078 32.6289 8.11328 34.875 10.3398C37.4141 12.8398 37.7656 13.0547 38.7227 12.7031C39.0742 12.5664 39.6016 11.6289 39.6016 11.1406C39.6016 10.9453 38.4492 9.63672 37.0234 8.1914C34.8164 5.96484 34.3672 5.59375 33.8398 5.59375C33.4492 5.59375 33.0586 5.76953 32.8047 6.04297Z" fill="white"/>
<path d="M57.1406 8.09375C54.8555 10.3789 54.6406 10.6523 54.6406 11.2969C54.6406 12.1562 55.3438 12.8203 56.2617 12.8203C56.7695 12.8203 57.2578 12.4297 59.3672 10.3203C61.5352 8.15234 61.8672 7.72266 61.8672 7.17578C61.8672 6.33594 61.125 5.59375 60.2656 5.59375C59.7188 5.59375 59.3086 5.90625 57.1406 8.09375Z" fill="white"/>
<path d="M44.6992 11.7656C42.2578 12.4297 39.9922 14.2266 38.7617 16.4922C38.2148 17.4883 37.668 19.6172 37.6484 20.6914C37.6484 21.3945 38.6055 22.3906 39.2695 22.3906C40.168 22.3906 40.5781 21.8242 40.8711 20.2227C41.1641 18.4453 41.7109 17.3516 42.7461 16.3555C44.0156 15.1055 45.0898 14.6953 47.0234 14.6758C48.4492 14.6758 48.8398 14.7539 49.7969 15.2227C51.75 16.1797 53.2734 18.4648 53.2734 20.457C53.2734 21.0625 53.4102 21.375 53.8398 21.8242C54.543 22.5273 55.2656 22.5469 55.9102 21.9023C56.4961 21.3359 56.5547 20.1641 56.1055 18.3867C54.8359 13.5039 49.5625 10.457 44.6992 11.7656Z" fill="white"/>
<path d="M27.3165 19.207C26.6524 19.7734 26.5938 20.6523 27.1603 21.3359L27.6485 21.9023L30.6368 21.9609C34.0157 22.0391 34.7774 21.9414 35.3243 21.3945C35.8321 20.8867 35.8126 19.7734 35.3048 19.2656C34.9337 18.8945 34.6603 18.875 31.3204 18.875C28.1954 18.875 27.6876 18.9141 27.3165 19.207Z" fill="white"/>
<path d="M58.7607 19.3828C58.1943 20.0859 58.2334 20.8477 58.8584 21.4336C59.3272 21.8828 59.5029 21.9023 62.3154 21.9609C63.9365 22 65.5576 21.9805 65.9092 21.9023C67.2568 21.6484 67.8037 20.1641 66.8857 19.3047C66.4561 18.8945 66.2607 18.875 62.8037 18.875H59.1514L58.7607 19.3828Z" fill="white"/>
<path d="M19.6399 25.3203C19.4641 25.4375 14.9914 33.0742 9.71799 42.3125C1.39767 56.8828 0.128141 59.1875 0.245329 59.6758C0.42111 60.5352 0.987516 60.9258 2.19845 61.0234L3.27267 61.1016L3.31173 77L3.37033 92.8789L3.81955 93.3281L4.26877 93.7773H45.968H87.6867L88.1555 93.2305L88.6242 92.6836V76.8828V61.1016L91.2414 61.0234C93.4485 60.9844 93.9172 60.9062 94.2492 60.5938C95.2258 59.7148 95.4797 60.2812 86.4563 42.4688C81.8274 33.3086 77.9016 25.6523 77.7258 25.457C77.4524 25.1445 75.8313 25.125 48.7024 25.125C30.2453 25.125 19.8547 25.2031 19.6399 25.3203ZM65.4992 43.0352L57.0422 57.8398L46.7102 57.8984C36.4367 57.9375 36.3977 57.9375 35.9485 58.3672C35.4406 58.8359 35.3625 59.793 35.7727 60.3203C36.3 61.0234 36.9445 61.0625 46.7492 61.0625H56.3977V75.9062V90.75L31.4563 90.7109L6.49533 90.6523L6.43674 75.8672L6.39767 61.082L15.7922 61.0234L25.1867 60.9648L25.675 60.3984C26.0461 59.9492 26.1242 59.6953 26.0461 59.2266C25.7922 57.9766 26.3391 58.0352 14.8938 57.9375L4.44455 57.8398L12.9016 43.0547L21.3391 28.25H47.6477H73.9563L65.4992 43.0352ZM83.6242 43.7773C87.4524 51.3555 90.5774 57.6445 90.5774 57.7617C90.5774 57.8789 90.0891 57.9375 89.2883 57.8984L87.9797 57.8398L81.6516 44.9688L75.343 32.0977L75.9485 31.0625C76.2805 30.4766 76.5735 30.0078 76.6125 30.0078C76.6516 30.0078 79.7961 36.1992 83.6242 43.7773ZM79.8742 48.4258L85.4992 59.8906L85.4602 75.2812L85.4016 90.6523L82.3352 90.7109L79.2492 90.7695L79.2102 77.0586L79.1516 63.3672L78.6828 62.9961C78.2531 62.6445 77.843 62.625 72.1399 62.625H66.0266L65.6164 63.0742L65.1867 63.5234L65.1477 77.0977L65.0891 90.6523L62.3156 90.7109L59.5227 90.7695V75.2812V59.793L66.4953 47.6055L73.4485 35.418L73.8391 36.1797C74.0539 36.5898 76.7688 42.0977 79.8742 48.4258ZM76.0852 78.1914L76.0266 90.6523L72.1789 90.7109L68.3117 90.75V78.25V65.75H72.218H76.1242L76.0852 78.1914Z" fill="white"/>
<path d="M22.4528 31.8047C22.238 32.0586 19.445 36.8242 16.2419 42.4102C10.07 53.2109 9.97235 53.4063 10.8513 54.2852L11.3005 54.7149L32.6286 54.7734C47.3552 54.8125 54.1716 54.7734 54.6794 54.6172C55.3825 54.4219 55.5583 54.1289 61.4763 43.7774C66.8278 34.4219 67.5505 33.0547 67.4333 32.5469C67.1599 31.2969 68.6247 31.375 44.6794 31.375H22.863L22.4528 31.8047ZM30.7927 35.6133C30.4411 36.2383 29.5231 37.8008 28.7614 39.0899L27.3747 41.4336L23.9177 41.4922C22.0231 41.5117 20.4606 41.5117 20.4606 41.4727C20.4606 41.3945 22.7263 37.3711 23.8981 35.3203L24.3864 34.5H27.902H31.4177L30.7927 35.6133ZM40.0505 38.0156L37.9802 41.5313H34.5817C32.277 41.5313 31.2028 41.4727 31.2028 41.3164C31.2028 41.1211 34.5427 35.3008 34.9724 34.7344C35.1091 34.5586 36.0856 34.5 38.6247 34.5H42.1013L40.0505 38.0156ZM52.1013 34.5781C52.1013 34.6953 48.3903 40.9844 48.1559 41.2774C47.9997 41.4727 47.1013 41.5313 44.8552 41.5313C43.1364 41.5313 41.7497 41.4727 41.7497 41.4141C41.7497 41.3359 42.6481 39.7539 43.7419 37.8984L45.7145 34.5H48.9177C50.6559 34.5 52.1013 34.5391 52.1013 34.5781ZM63.0388 34.6367C63.0388 34.7344 62.1794 36.2774 61.1247 38.1133L59.2106 41.4336L55.5583 41.4922C53.195 41.5117 51.9059 41.4727 51.9059 41.3359C51.9059 41.1602 53.0388 39.1875 55.1677 35.6133L55.8317 34.5H59.445C61.4177 34.5 63.0388 34.5586 63.0388 34.6367ZM25.3434 44.793C25.3434 44.8516 24.445 46.4336 23.3513 48.3086L21.3591 51.6875H18.0778C15.988 51.6875 14.7966 51.6094 14.7966 51.4922C14.7966 51.375 15.6559 49.793 16.6911 47.9766L18.5856 44.6563H21.9645C23.82 44.6563 25.3434 44.7149 25.3434 44.793ZM35.4802 45.7695C35.1286 46.3945 34.2106 47.957 33.4489 49.2461L32.0622 51.5899L28.6052 51.6484C26.7106 51.668 25.1481 51.6289 25.1481 51.5703C25.1481 51.4922 26.027 49.9102 27.1208 48.0547L29.0934 44.6563H32.6091H36.1052L35.4802 45.7695ZM45.3434 46.1602C44.8552 47 43.9177 48.582 43.2731 49.6758L42.1013 51.6875H38.9958C36.9059 51.6875 35.8903 51.6094 35.8903 51.4727C35.8903 51.2969 38.195 47.2344 39.3474 45.3789L39.7966 44.6563H43.0192H46.2419L45.3434 46.1602ZM57.0231 45.2813C56.8083 45.6328 56.0466 46.9805 55.3044 48.2695C54.5817 49.5586 53.82 50.8477 53.6247 51.1406L53.2536 51.6875H49.5427C47.5114 51.6875 45.8513 51.6484 45.8513 51.5899C45.8513 51.5313 46.7497 49.9492 47.8434 48.0742L49.8356 44.6563H53.6247H57.4138L57.0231 45.2813Z" fill="white"/>
<path d="M29.6792 58.3867C28.8979 59.2071 29.2104 60.4375 30.2846 60.8477C31.3784 61.2578 32.5307 60.2617 32.2768 59.1094C32.0229 57.9571 30.48 57.5274 29.6792 58.3867Z" fill="white"/>
<path d="M10.9297 70.8867C10.5195 71.3359 10.5 71.4922 10.5 75.8281C10.5 80.0469 10.5195 80.3594 10.8906 80.75C11.1055 80.9648 11.5742 81.2188 11.9062 81.2773C12.2578 81.3359 20.6758 81.3555 30.5781 81.3359L48.625 81.2773L49.0938 80.7109L49.582 80.1641L49.5234 75.6719C49.4648 71.2188 49.4648 71.1797 48.9961 70.8086C48.5664 70.457 47.9609 70.4375 29.9531 70.4375H11.3398L10.9297 70.8867ZM29.2109 75.8477L29.1523 78.1523L21.3984 78.2109L13.625 78.25V75.9062V73.5625H21.4375H29.2695L29.2109 75.8477ZM46.3984 75.8477L46.3398 78.1523L39.3672 78.2109L32.375 78.25V75.9062V73.5625H39.4062H46.457L46.3984 75.8477Z" fill="white"/>
</svg>
