<svg width="94" height="94" viewBox="0 0 94 94" fill="none" xmlns="http://www.w3.org/2000/svg">
<path d="M89.2409 48.6023C81.7789 94 67.8228 94 44.4705 94C21.1181 94 2.1873 73.6747 2.1873 48.6023C-7.76196 14.4205 18.1334 0 41.4858 0C70.835 -4.09392e-05 107.149 16.0227 89.2409 48.6023Z" fill="#6551E0" fill-opacity="0.1"/>
<g clip-path="url(#clip0_411_723)">
<path opacity="0.921" fill-rule="evenodd" clip-rule="evenodd" d="M33.0781 22.9531C33.2344 22.9531 33.3906 22.9531 33.5469 22.9531C34.0633 25.1127 34.5946 27.269 35.1406 29.4219C34.5997 29.5024 34.0684 29.6274 33.5469 29.7969C32.9845 27.6724 32.422 25.5474 31.8594 23.4219C31.879 23.3669 31.9102 23.3201 31.9531 23.2812C32.3477 23.1987 32.7227 23.0893 33.0781 22.9531Z" fill="#6551E0"/>
<path opacity="0.938" fill-rule="evenodd" clip-rule="evenodd" d="M70.9531 35.9843C70.9531 36.3593 70.9531 36.7343 70.9531 37.1093C70.7212 38.404 70.518 39.7165 70.3438 41.0468C70.2889 41.6487 69.9608 41.93 69.3594 41.8906C68.1778 41.6882 66.9903 41.5788 65.7969 41.5625C65.4188 41.8595 65.3406 42.2188 65.5625 42.6406C66.2417 43.5303 66.898 44.4365 67.5312 45.3593C67.6053 45.6532 67.5741 45.9344 67.4375 46.2031C66.2428 47.1364 65.0397 48.0582 63.8281 48.9687C63.3431 49.4477 62.8274 49.4946 62.2812 49.1093C61.6141 48.1608 60.911 47.2389 60.1719 46.3437C59.6815 46.1821 59.322 46.3227 59.0938 46.7656C58.915 47.9236 58.7275 49.0799 58.5312 50.2343C58.347 50.5277 58.0814 50.6839 57.7344 50.7031C56.1074 50.4818 54.4825 50.2475 52.8594 50C52.4086 49.877 52.1898 49.5801 52.2031 49.1093C52.342 48.044 52.4982 46.9815 52.6719 45.9218C52.5732 45.245 52.1982 45.0106 51.5469 45.2187C50.6719 45.875 49.7968 46.5312 48.9219 47.1875C48.6094 47.375 48.2968 47.375 47.9844 47.1875C46.9642 45.9487 45.9798 44.683 45.0312 43.3906C44.7108 43.0173 44.6484 42.6111 44.8438 42.1718C45.739 41.4327 46.6608 40.7296 47.6094 40.0625C48.0088 39.4843 47.8839 39.0468 47.2344 38.75C46.1706 38.6025 45.108 38.4462 44.0469 38.2812C43.6404 38.1715 43.4217 37.9058 43.3906 37.4843C43.6258 35.7595 43.8914 34.0407 44.1875 32.3281C44.4148 32.0062 44.7274 31.8812 45.125 31.9531C46.2634 32.1159 47.4041 32.2252 48.5469 32.2812C49.1136 31.8902 49.1605 31.437 48.6875 30.9218C48.0938 30.1406 47.5 29.3593 46.9062 28.5781C46.8827 28.3969 46.8358 28.225 46.7656 28.0625C42.0277 28.2044 38.3246 30.22 35.6562 34.1093C32.5878 39.3863 32.7753 44.5426 36.2188 49.5781C37.3736 51.0143 38.7329 52.2174 40.2969 53.1875C41.3282 54.0318 41.9688 55.1099 42.2188 56.4218C42.3315 57.9502 42.394 59.4815 42.4062 61.0156C42.5851 61.6006 42.9758 61.9599 43.5781 62.0937C46.0214 62.1848 48.4589 62.1536 50.8906 62C51.2551 61.7917 51.5207 61.4949 51.6875 61.1093C51.8053 59.5823 51.8679 58.051 51.875 56.5156C52.1411 55.1861 52.7817 54.0768 53.7969 53.1875C54.5657 52.7248 55.2845 52.1936 55.9531 51.5937C56.4502 51.8557 56.8564 52.2463 57.1719 52.7656C56.4762 53.4108 55.7262 53.9888 54.9219 54.5C54.2153 55.1164 53.7622 55.882 53.5625 56.7968C53.552 58.3313 53.4896 59.8626 53.375 61.3906C53.1591 62.2291 52.6903 62.8853 51.9688 63.3593C51.9375 64.8593 51.9062 66.3593 51.875 67.8593C51.7174 69.4379 50.8893 70.4692 49.3906 70.9531C47.8281 70.9531 46.2657 70.9531 44.7031 70.9531C43.486 70.5639 42.6891 69.7514 42.3125 68.5156C42.2813 66.7969 42.25 65.0781 42.2188 63.3593C41.5753 62.9504 41.1066 62.3879 40.8125 61.6718C40.696 60.6147 40.6334 59.5523 40.625 58.4843C40.2343 58.875 39.8438 59.2656 39.4531 59.6562C39.0781 59.8437 38.7031 59.8437 38.3281 59.6562C37.6719 59.2031 37.0156 58.7499 36.3594 58.2968C36.0724 59.1828 35.838 60.0891 35.6562 61.0156C35.5468 61.125 35.4375 61.2343 35.3281 61.3437C33.9844 61.5312 32.6406 61.5312 31.2969 61.3437C31.1875 61.2343 31.0781 61.125 30.9688 61.0156C30.7869 60.0891 30.5526 59.1828 30.2656 58.2968C29.5597 58.7995 28.8409 59.2839 28.1094 59.75C27.7846 59.8266 27.4721 59.7953 27.1719 59.6562C26.2784 58.7941 25.419 57.9035 24.5938 56.9843C24.5312 56.7343 24.5312 56.4844 24.5938 56.2343C25.0598 55.5028 25.5441 54.784 26.0469 54.0781C25.1585 53.8013 24.2522 53.5669 23.3281 53.375C23.2151 53.246 23.0901 53.1367 22.9531 53.0468C22.9531 51.7031 22.9531 50.3593 22.9531 49.0156C23.0901 48.9258 23.2151 48.8165 23.3281 48.6875C24.2547 48.5057 25.1609 48.2713 26.0469 47.9843C25.5938 47.3281 25.1406 46.6718 24.6875 46.0156C24.5484 45.7154 24.5172 45.4028 24.5938 45.0781C25.419 44.159 26.2784 43.2683 27.1719 42.4062C27.4721 42.2672 27.7846 42.2359 28.1094 42.3125C28.8684 42.7935 29.6027 43.3091 30.3125 43.8593C30.5432 42.9246 30.7619 41.9871 30.9688 41.0468C31.2116 40.7142 31.5398 40.5892 31.9531 40.6718C32.2645 35.9705 34.2644 32.1736 37.9531 29.2812C41.0903 27.0125 44.5903 26.0594 48.4531 26.4218C49.2476 25.8618 50.0288 25.2837 50.7969 24.6875C51.2621 24.3666 51.7152 24.3822 52.1562 24.7343C52.7921 25.6515 53.464 26.5422 54.1719 27.4062C54.7165 27.683 55.107 27.5424 55.3438 26.9843C55.4878 25.8198 55.6753 24.6635 55.9062 23.5156C56.2898 23.1589 56.7429 23.0495 57.2656 23.1875C58.8101 23.3768 60.3413 23.6268 61.8594 23.9375C62.0813 24.1176 62.2062 24.352 62.2344 24.6406C62.0607 25.7002 61.9045 26.7627 61.7656 27.8281C61.8583 28.5934 62.2647 28.8278 62.9844 28.5312C63.8409 27.8061 64.7472 27.1499 65.7031 26.5625C65.9659 26.4917 66.2159 26.5229 66.4531 26.6562C67.4403 27.8652 68.3934 29.0996 69.3125 30.3593C69.7856 30.9535 69.7387 31.5004 69.1719 32C68.3014 32.5839 67.4733 33.2245 66.6875 33.9218C66.4437 34.3908 66.5531 34.7501 67.0156 35C68.1701 35.1962 69.3264 35.3837 70.4844 35.5625C70.6894 35.6586 70.8457 35.7992 70.9531 35.9843ZM57.3594 24.9218C58.3559 25.0732 59.356 25.1981 60.3594 25.2968C60.2146 26.356 60.1365 27.4185 60.125 28.4843C60.6014 29.9656 61.617 30.575 63.1719 30.3125C64.1084 29.8293 64.9835 29.2511 65.7969 28.5781C66.4254 29.3515 67.0191 30.1484 67.5781 30.9687C66.8068 31.5974 66.0412 32.238 65.2812 32.8906C64.6134 34.1082 64.754 35.2176 65.7031 36.2187C65.9066 36.3674 66.1254 36.4925 66.3594 36.5937C67.2862 36.8087 68.2237 36.9493 69.1719 37.0156C69.0469 38.0468 68.9218 39.0781 68.7969 40.1093C67.8717 39.9794 66.9499 39.8543 66.0312 39.7343C64.1797 40.1233 63.4609 41.2483 63.875 43.1093C64.3757 43.9234 64.9226 44.7046 65.5156 45.4531C64.7345 46.0931 63.9376 46.7181 63.125 47.3281C62.6202 46.7296 62.1514 46.1047 61.7188 45.4531C60.6725 44.4597 59.5319 44.3191 58.2969 45.0312C57.9512 45.3322 57.6855 45.6916 57.5 46.1093C57.3025 47.0388 57.1618 47.9763 57.0781 48.9218C56.1113 48.777 55.1425 48.6364 54.1719 48.5C54.0961 48.4711 54.0336 48.4242 53.9844 48.3593C54.1397 47.5374 54.2648 46.7093 54.3594 45.875C54.2127 44.3377 53.369 43.5096 51.8281 43.3906C51.2066 43.4883 50.6441 43.7227 50.1406 44.0937C49.625 44.4844 49.1094 44.8749 48.5938 45.2656C48.0036 44.4754 47.4255 43.6785 46.8594 42.875C47.6518 42.2393 48.4173 41.5673 49.1562 40.8593C49.725 39.8754 49.6937 38.9066 49.0625 37.9531C48.7756 37.6612 48.4475 37.4268 48.0781 37.25C47.158 37.0517 46.2361 36.8798 45.3125 36.7343C45.3643 35.7302 45.4737 34.7303 45.6406 33.7343C46.2676 33.7904 46.8926 33.8685 47.5156 33.9687C49.121 34.2215 50.1679 33.5808 50.6562 32.0468C50.7383 31.3319 50.5821 30.6756 50.1875 30.0781C49.7344 29.5 49.2812 28.9219 48.8281 28.3437C49.6273 27.7163 50.4399 27.1069 51.2656 26.5156C51.7632 27.072 52.2162 27.6658 52.625 28.2968C53.5055 29.2473 54.5524 29.4817 55.7656 29C56.2233 28.6986 56.5827 28.308 56.8438 27.8281C57.0722 26.8694 57.2441 25.9007 57.3594 24.9218ZM32.0469 43.9531C32.2302 44.7247 32.4177 45.5059 32.6094 46.2968C30.6901 46.5933 29.3932 47.6558 28.7188 49.4843C28 52.4063 29.0157 54.4531 31.7656 55.625C34.2534 56.2474 36.1753 55.4818 37.5312 53.3281C38.3809 53.8629 39.1622 54.488 39.875 55.2031C40.0834 55.5105 40.2553 55.8386 40.3906 56.1875C39.9062 56.7968 39.3594 57.3437 38.75 57.8281C38.0791 57.4077 37.4072 56.9858 36.7344 56.5625C35.8376 56.3711 35.1657 56.668 34.7188 57.4531C34.5287 58.2312 34.3569 59.0124 34.2031 59.7968C33.6061 59.8278 33.0123 59.7965 32.4219 59.7031C32.2519 59.0858 32.1113 58.4607 32 57.8281C31.6824 56.7706 30.9793 56.3487 29.8906 56.5625C29.2337 56.922 28.6087 57.3283 28.0156 57.7812C27.9219 57.8438 27.8281 57.8438 27.7344 57.7812C27.2925 57.3708 26.8862 56.9333 26.5156 56.4687C26.8056 55.9597 27.1338 55.4753 27.5 55.0156C28.1148 53.9115 27.8804 53.0521 26.7969 52.4375C26.081 52.2507 25.3623 52.0788 24.6406 51.9218C24.5156 51.3281 24.5156 50.7343 24.6406 50.1406C25.464 49.9791 26.2765 49.7759 27.0781 49.5312C27.7939 48.9776 27.997 48.2745 27.6875 47.4218C27.3125 46.8593 26.9375 46.2968 26.5625 45.7343C26.5 45.6406 26.5 45.5468 26.5625 45.4531C26.9729 45.0112 27.4104 44.6049 27.875 44.2343C28.4521 44.6236 29.0303 45.0142 29.6094 45.4062C30.9623 45.8084 31.7748 45.3241 32.0469 43.9531ZM32.7969 47.8906C32.9941 47.8626 33.1816 47.8938 33.3594 47.9843C33.71 48.7799 34.1319 49.5299 34.625 50.2343C35.1419 50.876 35.6576 51.5167 36.1719 52.1562C35.3346 53.8735 33.9908 54.4673 32.1406 53.9375C30.4434 53.0583 29.8653 51.6989 30.4062 49.8593C30.9066 48.8366 31.7035 48.1804 32.7969 47.8906ZM43.9531 63.8281C46.0468 63.8281 48.1407 63.8281 50.2344 63.8281C50.2344 64.3281 50.2344 64.8281 50.2344 65.3281C48.1407 65.3281 46.0468 65.3281 43.9531 65.3281C43.9531 64.8281 43.9531 64.3281 43.9531 63.8281ZM43.9531 67.0156C46.0468 67.0156 48.1407 67.0156 50.2344 67.0156C50.381 68.0352 50.006 68.7697 49.1094 69.2187C47.7343 69.2813 46.3594 69.2813 44.9844 69.2187C44.0759 68.7608 43.7323 68.0265 43.9531 67.0156Z" fill="#6551E0"/>
<path opacity="0.91" fill-rule="evenodd" clip-rule="evenodd" d="M25.9531 27.2656C27.8867 28.5457 29.7929 29.8738 31.6719 31.25C31.3594 31.6875 31.0469 32.125 30.7344 32.5625C30.472 32.4939 30.222 32.3688 29.9844 32.1875C28.3281 30.9844 26.6719 29.7812 25.0156 28.5781C25.329 28.1379 25.6415 27.7004 25.9531 27.2656Z" fill="#6551E0"/>
<path opacity="0.936" fill-rule="evenodd" clip-rule="evenodd" d="M56.9847 30.4531C60.8126 30.6719 63.0157 32.6719 63.594 36.4531C63.6579 39.4675 62.3298 41.6081 59.6097 42.875C56.3988 43.8879 53.7895 43.0598 51.7815 40.3906C50.3695 37.8082 50.4944 35.3082 52.1565 32.8906C53.4402 31.4129 55.0495 30.6004 56.9847 30.4531ZM56.9847 32.1406C56.5201 32.2118 56.0514 32.3211 55.5784 32.4688C53.0271 33.6809 52.0739 35.6653 52.719 38.4219C53.7287 40.7318 55.4944 41.7787 58.0159 41.5625C60.6248 40.8597 61.9217 39.1566 61.9065 36.4531C61.3921 33.7359 59.7515 32.2984 56.9847 32.1406Z" fill="#6551E0"/>
<path opacity="0.933" fill-rule="evenodd" clip-rule="evenodd" d="M41.0467 31.9531C41.4268 32.3673 41.7393 32.8361 41.9842 33.3594C37.8419 36.4593 36.6388 40.4593 38.3748 45.3594C39.6605 48.0199 41.7075 49.8168 44.5155 50.75C46.685 52.0936 47.81 54.0467 47.8905 56.6094C47.328 56.6094 46.7655 56.6094 46.203 56.6094C46.119 54.706 45.2752 53.2528 43.6717 52.25C38.2166 50.0443 35.6385 45.9973 35.9373 40.1094C36.4576 36.6279 38.1606 33.9091 41.0467 31.9531Z" fill="#6551E0"/>
<path opacity="0.932" fill-rule="evenodd" clip-rule="evenodd" d="M30.0781 35.0469C30.3198 35.5748 30.476 36.1373 30.5469 36.7344C28.4152 37.236 26.2902 37.7673 24.1719 38.3281C24.0016 37.8036 23.8453 37.2723 23.7031 36.7344C25.838 36.1695 27.963 35.607 30.0781 35.0469Z" fill="#6551E0"/>
<path opacity="0.936" fill-rule="evenodd" clip-rule="evenodd" d="M62.1406 52.5781C64.0156 52.5781 65.8906 52.5781 67.7656 52.5781C67.7656 53.1406 67.7656 53.7031 67.7656 54.2656C65.8906 54.2656 64.0156 54.2656 62.1406 54.2656C62.1406 53.7031 62.1406 53.1406 62.1406 52.5781Z" fill="#6551E0"/>
<path opacity="0.912" fill-rule="evenodd" clip-rule="evenodd" d="M61.7656 56.7969C61.9797 56.807 62.1672 56.8851 62.3281 57.0312C63.8144 58.259 65.2831 59.5091 66.7344 60.7812C66.3861 61.2118 66.0268 61.6337 65.6563 62.0469C64.0625 60.7344 62.4688 59.4219 60.875 58.1094C60.8125 58.0468 60.8125 57.9844 60.875 57.9219C61.192 57.5586 61.4888 57.1836 61.7656 56.7969Z" fill="#6551E0"/>
<path opacity="0.924" fill-rule="evenodd" clip-rule="evenodd" d="M46.2031 58.2031C46.7656 58.2031 47.3281 58.2031 47.8906 58.2031C47.8906 59.0157 47.8906 59.8281 47.8906 60.6406C47.3281 60.6406 46.7656 60.6406 46.2031 60.6406C46.2031 59.8281 46.2031 59.0157 46.2031 58.2031Z" fill="#6551E0"/>
<path opacity="0.935" fill-rule="evenodd" clip-rule="evenodd" d="M57.3594 58.9531C57.9219 58.9531 58.4844 58.9531 59.0469 58.9531C59.0469 60.8281 59.0469 62.7031 59.0469 64.5781C58.4844 64.5781 57.9219 64.5781 57.3594 64.5781C57.3594 62.7031 57.3594 60.8281 57.3594 58.9531Z" fill="#6551E0"/>
</g>
<defs>
<clipPath id="clip0_411_723">
<rect width="48" height="48" fill="white" transform="translate(23 23)"/>
</clipPath>
</defs>
</svg>
