<svg width="94" height="94" viewBox="0 0 94 94" fill="none" xmlns="http://www.w3.org/2000/svg">
<path d="M4.75914 48.6023C12.2211 94 26.1772 94 49.5295 94C72.8819 94 91.8127 73.6747 91.8127 48.6023C101.762 14.4205 75.8666 0 52.5142 0C23.165 -4.09392e-05 -13.1488 16.0227 4.75914 48.6023Z" fill="#6551E0" fill-opacity="0.1"/>
<g clip-path="url(#clip0_411_719)">
<path opacity="0.939" fill-rule="evenodd" clip-rule="evenodd" d="M43.6406 22.9531C44.7031 22.9531 45.7657 22.9531 46.8281 22.9531C47.5425 23.1498 48.1207 23.556 48.5625 24.1719C48.8774 24.8253 49.1118 25.4972 49.2656 26.1875C49.9219 26.2187 50.5781 26.25 51.2344 26.2812C52.5087 26.5089 53.3213 27.2433 53.6719 28.4844C56.2345 28.4688 58.7971 28.4844 61.3594 28.5312C62.2717 28.7248 62.8497 29.2716 63.0938 30.1719C63.1563 32.4219 63.1563 34.6719 63.0938 36.9219C62.6562 37.2969 62.2188 37.2969 61.7813 36.9219C61.75 36.7969 61.7187 36.6718 61.6875 36.5469C61.6563 34.5156 61.625 32.4844 61.5938 30.4531C61.4898 30.2361 61.3178 30.0955 61.0781 30.0312C60.673 29.9845 60.2668 29.9688 59.8594 29.9844C59.875 33.6095 59.8594 37.2345 59.8125 40.8594C59.6269 41.3662 59.2674 41.538 58.7344 41.375C58.625 41.2656 58.5157 41.1563 58.4063 41.0469C58.3594 37.3595 58.3437 33.672 58.3594 29.9844C56.8282 29.9844 55.2968 29.9844 53.7656 29.9844C53.908 30.9338 53.5643 31.6369 52.7344 32.0938C50.2388 32.2015 47.7388 32.2484 45.2344 32.2344C42.8594 32.2187 40.4843 32.2031 38.1094 32.1875C37.0636 31.8319 36.5948 31.0975 36.7031 29.9844C35.2031 29.9844 33.7031 29.9844 32.2031 29.9844C32.172 41.8815 32.2032 53.7722 32.2969 65.6562C35.7036 65.7343 39.1098 65.7188 42.5156 65.6094C43.2543 64.0383 44.0199 62.4758 44.8125 60.9219C51.1069 53.0368 57.435 45.1774 63.7969 37.3438C65.0457 36.5314 66.2957 36.5314 67.5469 37.3438C68.825 38.7289 68.9032 40.182 67.7813 41.7031C61.7187 49.2657 55.6563 56.8281 49.5938 64.3906C49.1093 64.8125 48.625 65.2344 48.1406 65.6562C51.4844 65.7188 54.8281 65.7188 58.1719 65.6562C58.2188 65.6094 58.2656 65.5625 58.3125 65.5156C58.3437 61.8906 58.375 58.2657 58.4063 54.6406C58.9039 54.0128 59.3726 54.044 59.8125 54.7344C59.875 58.3906 59.875 62.0469 59.8125 65.7031C59.6573 66.4208 59.2355 66.9051 58.5469 67.1562C54.4219 67.1875 50.2969 67.2188 46.1719 67.25C45.686 67.6025 45.2172 67.9775 44.7656 68.375C43.8609 68.7934 43.0641 68.6528 42.375 67.9531C42.215 67.7273 42.1369 67.4773 42.1406 67.2031C38.7654 67.2188 35.3904 67.2031 32.0156 67.1562C31.3841 66.9935 30.9622 66.6028 30.75 65.9844C30.7031 53.9844 30.6875 41.9844 30.7031 29.9844C30.2645 29.9688 29.827 29.9844 29.3906 30.0312C29.1563 30.1406 28.9844 30.3125 28.875 30.5469C28.7817 43.4271 28.813 56.3021 28.9688 69.1719C29.1602 69.3691 29.3946 69.4785 29.6719 69.5C40.2071 69.593 50.7384 69.5618 61.2656 69.4062C61.375 69.2968 61.4843 69.1875 61.5938 69.0781C61.625 62.9532 61.6563 56.8281 61.6875 50.7031C61.8248 50.1263 62.1842 49.9231 62.7656 50.0938C62.9063 50.1718 63.0157 50.2812 63.0938 50.4219C63.1563 56.7343 63.1563 63.0469 63.0938 69.3594C62.8107 70.1266 62.2951 70.6579 61.5469 70.9531C50.6719 70.9531 39.7969 70.9531 28.9219 70.9531C28.0922 70.6386 27.5765 70.0449 27.375 69.1719C27.3125 56.2032 27.3125 43.2343 27.375 30.2656C27.6508 29.3335 28.2602 28.7554 29.2031 28.5312C31.7344 28.5 34.2656 28.4687 36.7969 28.4375C37.184 27.2431 37.9965 26.5244 39.2344 26.2812C39.9265 26.2625 40.614 26.2156 41.2969 26.1406C41.3973 24.5604 42.1786 23.4979 43.6406 22.9531ZM44.3906 24.3594C44.954 24.3438 45.5165 24.3594 46.0781 24.4062C46.6019 24.4572 47.0238 24.6916 47.3438 25.1094C47.5142 25.5968 47.6392 26.0968 47.7188 26.6094C47.968 27.1711 48.3899 27.5305 48.9844 27.6875C49.6718 27.7187 50.3594 27.75 51.0469 27.7812C51.6492 27.915 52.0399 28.2744 52.2188 28.8594C52.2813 29.4219 52.2813 29.9844 52.2188 30.5469C52.1719 30.5938 52.125 30.6406 52.0781 30.6875C47.5156 30.75 42.9532 30.75 38.3906 30.6875C38.3438 30.6406 38.2969 30.5938 38.25 30.5469C38.1444 29.8395 38.2069 29.152 38.4375 28.4844C38.6894 28.1381 39.0175 27.9037 39.4219 27.7812C40.1407 27.75 40.8593 27.7187 41.5781 27.6875C42.2097 27.5247 42.6316 27.1341 42.8438 26.5156C42.7711 25.3411 43.2867 24.6224 44.3906 24.3594ZM65.2969 38.2344C66.3367 38.1443 66.9304 38.613 67.0781 39.6406C67.038 40.0269 66.8974 40.3707 66.6563 40.6719C65.9645 41.4572 65.3082 42.2698 64.6875 43.1094C63.9446 42.5426 63.2103 41.9644 62.4844 41.375C63.1563 40.5156 63.8281 39.6563 64.5 38.7969C64.7177 38.5255 64.9833 38.338 65.2969 38.2344ZM61.4531 42.5469C62.188 43.1407 62.938 43.7188 63.7031 44.2812C58.7187 50.5156 53.7344 56.75 48.75 62.9844C48.0071 62.4176 47.2728 61.8394 46.5469 61.25C51.5378 55.0256 56.5066 48.7912 61.4531 42.5469ZM45.7031 62.5156C46.3638 63.0026 46.9888 63.5338 47.5781 64.1094C46.4082 65.0448 45.252 65.998 44.1094 66.9688C43.8915 67.1645 43.704 67.1488 43.5469 66.9219C44.2922 65.4626 45.011 63.9939 45.7031 62.5156Z" fill="#6551E0"/>
<path opacity="0.912" fill-rule="evenodd" clip-rule="evenodd" d="M40.265 35.7969C41.0291 35.6713 41.3884 35.9838 41.3432 36.7344C40.4941 38.0834 39.5722 39.3803 38.5775 40.625C38.1544 40.8832 37.7169 40.9144 37.265 40.7188C36.5656 40.1757 35.8937 39.5976 35.2494 38.9844C35.0538 38.5702 35.1318 38.2109 35.4838 37.9063C35.8085 37.8297 36.1211 37.861 36.4213 38C36.8834 38.411 37.3365 38.8329 37.7807 39.2657C38.5637 38.0736 39.3918 36.9174 40.265 35.7969Z" fill="#6551E0"/>
<path opacity="0.927" fill-rule="evenodd" clip-rule="evenodd" d="M44.3911 36.1719C47.9225 36.1562 51.4538 36.1719 54.9849 36.2188C55.3836 36.5394 55.4618 36.93 55.2193 37.3906C55.1346 37.5032 55.0253 37.5814 54.8911 37.625C51.4224 37.6875 47.9536 37.6875 44.4849 37.625C44.0983 37.533 43.9108 37.283 43.9224 36.875C43.9534 36.5488 44.1097 36.3144 44.3911 36.1719Z" fill="#6551E0"/>
<path opacity="0.928" fill-rule="evenodd" clip-rule="evenodd" d="M44.4835 39.2656C47.9524 39.25 51.4212 39.2656 54.8897 39.3125C55.3181 39.5507 55.4587 39.9102 55.3116 40.3906C55.2022 40.5 55.0929 40.6094 54.9835 40.7188C51.4522 40.7813 47.921 40.7813 44.3897 40.7188C43.8973 40.4295 43.8036 40.0388 44.1085 39.5469C44.2398 39.4512 44.3649 39.3574 44.4835 39.2656Z" fill="#6551E0"/>
<path opacity="0.912" fill-rule="evenodd" clip-rule="evenodd" d="M40.5472 46.0156C41.1502 46.1026 41.4158 46.4463 41.3441 47.0469C40.5111 48.3536 39.6205 49.6192 38.6722 50.8437C38.2602 51.0663 37.8228 51.1288 37.3597 51.0312C36.602 50.524 35.8989 49.9458 35.2503 49.2969C35.0174 48.3422 35.3769 47.9829 36.3284 48.2187C36.8128 48.6406 37.2972 49.0625 37.7816 49.4844C38.5316 48.4219 39.2816 47.3593 40.0316 46.2969C40.2074 46.1929 40.3793 46.0992 40.5472 46.0156Z" fill="#6551E0"/>
<path opacity="0.927" fill-rule="evenodd" clip-rule="evenodd" d="M44.3908 46.2031C47.891 46.1875 51.3909 46.2031 54.8908 46.25C55.3337 46.4783 55.4743 46.8377 55.3127 47.3281C55.1989 47.4734 55.0582 47.5827 54.8908 47.6563C51.3908 47.7188 47.8908 47.7188 44.3908 47.6563C43.7734 47.1725 43.7734 46.6881 44.3908 46.2031Z" fill="#6551E0"/>
<path opacity="0.921" fill-rule="evenodd" clip-rule="evenodd" d="M44.4848 49.2969C46.2663 49.2812 48.0476 49.2969 49.8285 49.3438C50.3354 49.5294 50.5072 49.8888 50.3442 50.4219C50.2348 50.5313 50.1255 50.6406 50.016 50.75C48.1098 50.8125 46.2035 50.8125 44.2973 50.75C43.7695 50.1864 43.832 49.702 44.4848 49.2969Z" fill="#6551E0"/>
<path opacity="0.91" fill-rule="evenodd" clip-rule="evenodd" d="M40.2659 56.2344C41.0252 56.1036 41.3847 56.4162 41.3441 57.1719C40.5111 58.4786 39.6205 59.7442 38.6722 60.9688C38.1577 61.242 37.6264 61.2733 37.0784 61.0625C36.4691 60.5157 35.8597 59.9687 35.2503 59.4219C35.0174 58.4672 35.3769 58.1079 36.3284 58.3438C36.8128 58.7656 37.2972 59.1875 37.7816 59.6094C38.5899 58.4578 39.418 57.3328 40.2659 56.2344Z" fill="#6551E0"/>
</g>
<defs>
<clipPath id="clip0_411_719">
<rect width="48" height="48" fill="white" transform="translate(24 23)"/>
</clipPath>
</defs>
</svg>
