<svg width="48" height="48" viewBox="0 0 48 48" fill="none" xmlns="http://www.w3.org/2000/svg">
<g clip-path="url(#clip0_411_582)">
<path opacity="0.927" fill-rule="evenodd" clip-rule="evenodd" d="M23.3906 -0.046875C23.7656 -0.046875 24.1406 -0.046875 24.5156 -0.046875C25.6993 0.728796 26.8868 1.51005 28.0781 2.29688C29.2293 2.01349 30.3856 1.74787 31.5469 1.5C32.3136 1.31339 32.9542 1.51651 33.4688 2.10938C34.1685 3.18086 34.9028 4.22774 35.6719 5.25C36.8919 5.42876 38.1107 5.61626 39.3281 5.8125C39.9056 5.89025 40.3275 6.18713 40.5938 6.70312C40.9386 8.05103 41.2979 9.39478 41.6719 10.7344C42.8281 11.4063 43.9844 12.0781 45.1406 12.75C45.5761 13.134 45.7636 13.6184 45.7031 14.2031C45.5928 15.4606 45.4366 16.7106 45.2344 17.9531C46.1484 19.1467 47.0547 20.3342 47.9531 21.5156C47.9531 21.8906 47.9531 22.2656 47.9531 22.6406C47.2876 23.8304 46.6313 25.0336 45.9844 26.25C46.4119 27.4075 46.8025 28.5794 47.1562 29.7656C47.2585 30.2903 47.196 30.7903 46.9688 31.2656C46.071 32.1637 45.1179 32.9918 44.1094 33.75C43.9642 33.8638 43.8548 34.0044 43.7812 34.1719C43.7021 35.5167 43.6084 36.8604 43.5 38.2031C43.3417 38.6742 43.0448 39.0337 42.6094 39.2812C41.3478 39.707 40.0977 40.1601 38.8594 40.6406C38.3069 41.9018 37.7287 43.1519 37.125 44.3906C36.7449 44.7887 36.2762 45.0074 35.7188 45.0469C34.4552 44.9505 33.1896 44.9036 31.9219 44.9062C30.892 46.015 29.7983 47.0307 28.6406 47.9531C28.2656 47.9531 27.8906 47.9531 27.5156 47.9531C26.3561 47.4052 25.1687 46.9052 23.9531 46.4531C22.7376 46.9052 21.5501 47.4052 20.3906 47.9531C20.0156 47.9531 19.6406 47.9531 19.2656 47.9531C19.0718 47.8711 18.8843 47.7618 18.7031 47.625C17.7968 46.7187 16.8907 45.8125 15.9844 44.9062C14.7167 44.9036 13.4511 44.9505 12.1875 45.0469C11.6301 45.0074 11.1613 44.7887 10.7812 44.3906C10.1775 43.1519 9.59934 41.9018 9.04688 40.6406C7.80851 40.1601 6.55852 39.707 5.29688 39.2812C4.86148 39.0337 4.5646 38.6742 4.40625 38.2031C4.29786 36.8604 4.20411 35.5167 4.125 34.1719C4.05145 34.0044 3.94208 33.8638 3.79688 33.75C2.78833 32.9918 1.8352 32.1637 0.9375 31.2656C0.71023 30.7903 0.64773 30.2903 0.75 29.7656C1.10375 28.5794 1.49437 27.4075 1.92188 26.25C1.27489 25.0336 0.618635 23.8304 -0.046875 22.6406C-0.046875 22.2656 -0.046875 21.8906 -0.046875 21.5156C0.851546 20.3342 1.75779 19.1467 2.67188 17.9531C2.46968 16.7106 2.31343 15.4606 2.20312 14.2031C2.14265 13.6184 2.33015 13.134 2.76562 12.75C3.92187 12.0781 5.07813 11.4063 6.23438 10.7344C6.60834 9.39478 6.96772 8.05103 7.3125 6.70312C7.57875 6.18713 8.00062 5.89025 8.57812 5.8125C9.79556 5.61626 11.0143 5.42876 12.2344 5.25C13.0034 4.22774 13.7378 3.18086 14.4375 2.10938C14.9521 1.51651 15.5927 1.31339 16.3594 1.5C17.5207 1.74787 18.677 2.01349 19.8281 2.29688C21.0194 1.51005 22.2069 0.728796 23.3906 -0.046875ZM23.7656 1.45312C23.8943 1.43843 24.0194 1.45406 24.1406 1.5C25.1093 2.15625 26.0782 2.8125 27.0469 3.46875C27.4549 3.71145 27.8924 3.8052 28.3594 3.75C29.6348 3.43865 30.916 3.18864 32.2031 3C33.001 4.1895 33.8448 5.34575 34.7344 6.46875C34.9918 6.63278 35.2731 6.72653 35.5781 6.75C36.7657 6.9375 37.9531 7.125 39.1406 7.3125C39.5502 8.62257 39.9097 9.95072 40.2188 11.2969C40.3125 11.4532 40.4062 11.6093 40.5 11.7656C41.6798 12.5197 42.8829 13.2385 44.1094 13.9219C44.1406 14.0625 44.1719 14.2031 44.2031 14.3438C44.0179 15.6707 43.8773 16.9988 43.7812 18.3281C43.888 18.6667 44.0443 18.9793 44.25 19.2656C45.0081 20.19 45.7425 21.1275 46.4531 22.0781C45.9244 23.1981 45.3463 24.2918 44.7188 25.3594C44.6186 25.6504 44.5405 25.9473 44.4844 26.25C44.856 27.5211 45.2466 28.7867 45.6562 30.0469C45.7188 30.1718 45.7188 30.2969 45.6562 30.4219C44.7968 31.1562 43.9375 31.8907 43.0781 32.625C42.7723 32.868 42.5379 33.1649 42.375 33.5156C42.2354 34.951 42.1104 36.3886 42 37.8281C40.593 38.3387 39.2023 38.8855 37.8281 39.4688C37.1344 40.7781 36.4781 42.1062 35.8594 43.4531C35.785 43.4935 35.7068 43.5248 35.625 43.5469C34.5022 43.4758 33.3772 43.4133 32.25 43.3594C31.7465 43.3484 31.2934 43.489 30.8906 43.7812C29.9931 44.726 29.0556 45.6166 28.0781 46.4531C26.723 45.8693 25.348 45.3381 23.9531 44.8594C22.5582 45.3381 21.1833 45.8693 19.8281 46.4531C18.8507 45.6166 17.9132 44.726 17.0156 43.7812C16.6129 43.489 16.1598 43.3484 15.6562 43.3594C14.5291 43.4133 13.4041 43.4758 12.2812 43.5469C12.1994 43.5248 12.1212 43.4935 12.0469 43.4531C11.4281 42.1062 10.7719 40.7781 10.0781 39.4688C8.70391 38.8855 7.31329 38.3387 5.90625 37.8281C5.79506 36.3889 5.67006 34.9513 5.53125 33.5156C5.36832 33.1649 5.13395 32.868 4.82812 32.625C4.10937 32.0313 3.39063 31.4375 2.67188 30.8438C2.45865 30.6783 2.3024 30.4751 2.20312 30.2344C2.61893 28.9088 3.02518 27.5807 3.42188 26.25C3.36573 25.9473 3.28761 25.6504 3.1875 25.3594C2.55998 24.2918 1.98186 23.1981 1.45312 22.0781C2.32743 20.9375 3.18681 19.7812 4.03125 18.6094C4.09297 18.3937 4.13984 18.175 4.17188 17.9531C3.99641 16.7526 3.84016 15.5495 3.70312 14.3438C3.73437 14.2031 3.76563 14.0625 3.79688 13.9219C5.02327 13.2385 6.2264 12.5197 7.40625 11.7656C7.5 11.6093 7.59375 11.4532 7.6875 11.2969C7.99661 9.95072 8.35599 8.62257 8.76562 7.3125C9.98306 7.11626 11.2018 6.92876 12.4219 6.75C13.0644 6.60787 13.5488 6.24849 13.875 5.67188C14.4727 4.77311 15.0821 3.88249 15.7031 3C16.9902 3.18864 18.2715 3.43865 19.5469 3.75C20.0138 3.8052 20.4514 3.71145 20.8594 3.46875C21.8449 2.80972 22.8137 2.13784 23.7656 1.45312Z" fill="#6551E0"/>
<path opacity="0.926" fill-rule="evenodd" clip-rule="evenodd" d="M22.7348 5.67186C29.053 5.48045 34.2249 7.79296 38.2504 12.6094C41.9872 17.6533 43.0184 23.2158 41.3441 29.2969C40.8555 31.0398 40.0586 32.618 38.9535 34.0312C38.1097 34.1558 37.7816 33.7965 37.9691 32.9531C41.3496 27.2639 41.5059 21.4826 38.4379 15.6094C35.1117 10.2413 30.268 7.42886 23.9066 7.17186C21.8879 7.18188 19.9348 7.54125 18.0473 8.24999C17.2034 8.3746 16.8753 8.01522 17.0629 7.17186C17.2252 6.97343 17.4283 6.83281 17.6723 6.74999C19.3303 6.1904 21.0178 5.83103 22.7348 5.67186Z" fill="#6551E0"/>
<path opacity="0.924" fill-rule="evenodd" clip-rule="evenodd" d="M14.3905 8.29684C15.2068 8.25339 15.5349 8.62839 15.3749 9.42184C8.99727 13.7108 6.37227 19.6795 7.4999 27.3281C8.62893 32.0427 11.2383 35.6834 15.328 38.25C19.86 40.8719 24.61 41.3406 29.578 39.6562C32.0802 38.6871 34.2678 37.2496 36.1405 35.3437C36.7727 35.1751 37.1477 35.4094 37.2655 36.0468C37.2136 36.2447 37.1354 36.4322 37.0311 36.6093C31.7699 41.6552 25.598 43.2333 18.5155 41.3437C11.299 38.8025 7.06462 33.7556 5.8124 26.2031C5.21582 20.0542 7.10645 14.8199 11.4843 10.5C12.4171 9.70637 13.3858 8.97202 14.3905 8.29684Z" fill="#6551E0"/>
<path opacity="0.931" fill-rule="evenodd" clip-rule="evenodd" d="M24.3281 10.0781C26.2258 10.0546 27.3977 10.9609 27.8438 12.7968C27.8799 14.1563 27.8642 15.5157 27.7969 16.875C27.8126 17.4218 27.8281 17.9687 27.8438 18.5156C27.8906 18.5625 27.9375 18.6093 27.9844 18.6562C30.3907 18.6874 32.7969 18.7187 35.2031 18.75C36.5088 19.2125 37.087 20.1344 36.9375 21.5156C36.8134 22.0296 36.579 22.4827 36.2344 22.875C37.0116 24.252 36.7928 25.4552 35.5781 26.4843C35.9789 27.3521 35.9321 28.1958 35.4375 29.0156C35.1982 29.2233 34.995 29.4577 34.8281 29.7187C35.3872 30.9777 35.1372 32.0401 34.0781 32.9062C33.7626 33.111 33.4188 33.2359 33.0469 33.2812C31.8907 33.3437 30.7344 33.3437 29.5781 33.2812C29.0713 33.0956 28.8995 32.7361 29.0625 32.2031C29.1719 32.0937 29.2812 31.9844 29.3906 31.875C30.5469 31.8437 31.7032 31.8124 32.8594 31.7812C33.5352 31.539 33.7383 31.0859 33.4688 30.4218C33.355 30.2766 33.2143 30.1673 33.0469 30.0937C32.5391 30.0788 32.0391 30.0163 31.5469 29.9062C31.1553 29.4418 31.1866 29.0043 31.6406 28.5937C32.2969 28.5625 32.9531 28.5312 33.6094 28.5C34.2852 28.2578 34.4883 27.8046 34.2188 27.1406C34.105 26.9954 33.9643 26.886 33.7969 26.8125C33.2891 26.7975 32.7891 26.735 32.2969 26.625C31.9053 26.1605 31.9366 25.7231 32.3906 25.3125C33.0781 25.2812 33.7657 25.2499 34.4531 25.2187C35.283 24.8503 35.4081 24.319 34.8281 23.625C34.2685 23.5264 33.706 23.4327 33.1406 23.3437C32.7491 22.8793 32.7804 22.4418 33.2344 22.0312C33.8357 22.0191 34.4294 21.9566 35.0156 21.8437C35.6506 21.2698 35.6193 20.7385 34.9219 20.25C32.5156 20.2187 30.1094 20.1874 27.7031 20.1562C27.0093 19.9936 26.5562 19.5718 26.3438 18.8906C26.3198 16.9215 26.3198 14.9527 26.3438 12.9843C26.106 12.1841 25.5747 11.7153 24.75 11.5781C24.5951 11.6081 24.5013 11.7018 24.4688 11.8593C24.43 13.3009 24.3362 14.7384 24.1875 16.1718C23.6557 18.7215 22.2651 20.6434 20.0156 21.9375C19.8056 22.029 19.5869 22.0759 19.3594 22.0781C19.3594 25.0781 19.3594 28.0781 19.3594 31.0781C20.423 31.4455 21.5168 31.6799 22.6406 31.7812C24.0157 31.8124 25.3906 31.8437 26.7656 31.875C27.4142 32.3784 27.3829 32.8471 26.6719 33.2812C24.9821 33.3589 23.2946 33.3277 21.6094 33.1875C20.8122 33.0937 20.0466 32.8905 19.3125 32.5781C19.0184 33.3413 18.4716 33.7944 17.6719 33.9375C16.4478 34.0239 15.2291 33.9927 14.0156 33.8437C13.3687 33.603 12.9468 33.1498 12.75 32.4843C12.6875 30.0468 12.6875 27.6093 12.75 25.1718C13.2188 24.5468 13.6875 24.5468 14.1563 25.1718C14.1875 27.5156 14.2188 29.8593 14.25 32.2031C14.3347 32.3157 14.444 32.3939 14.5781 32.4375C15.5469 32.5 16.5157 32.5 17.4844 32.4375C17.6186 32.3939 17.7279 32.3157 17.8125 32.2031C17.8751 28.2968 17.8751 24.3906 17.8125 20.4843C17.7656 20.3749 17.6876 20.2968 17.5781 20.25C16.5113 20.1739 15.4488 20.1895 14.3906 20.2968C14.3258 20.346 14.2789 20.4086 14.25 20.4843C14.2188 21.1406 14.1875 21.7968 14.1563 22.4531C13.8738 22.9251 13.4831 23.0345 12.9844 22.7812C12.8718 22.6965 12.7936 22.5872 12.75 22.4531C12.6875 21.7031 12.6875 20.9531 12.75 20.2031C12.9167 19.446 13.3698 18.9616 14.1094 18.75C15.4908 18.661 16.8658 18.6922 18.2344 18.8437C18.9137 19.2155 19.3044 19.7936 19.4063 20.5781C21.307 19.3713 22.432 17.6526 22.7813 15.4218C22.8439 14.0125 22.9376 12.6062 23.0625 11.2031C23.3281 10.6399 23.75 10.2649 24.3281 10.0781Z" fill="#6551E0"/>
</g>
<defs>
<clipPath id="clip0_411_582">
<rect width="48" height="48" fill="white"/>
</clipPath>
</defs>
</svg>